<svg width="28" height="28" viewBox="0 0 28 28" fill="none" xmlns="http://www.w3.org/2000/svg">
<path d="M24.1104 2.33379H21.7765V0H20.221V2.33379H7.77721V0H6.22173V2.33379H3.88921C1.74472 2.33379 -0.000183105 4.07861 -0.000183105 6.22299V24.1108C-0.000183105 26.2552 1.74472 28 3.88921 28H24.1104C26.2549 28 27.9998 26.2552 27.9998 24.1108V10.1108V8.5554V6.22161C27.9984 4.07723 26.2535 2.33379 24.1104 2.33379ZM26.443 24.1094C26.443 25.3952 25.3963 26.4418 24.1104 26.4418H3.88921C2.60196 26.4418 1.5553 25.3952 1.5553 24.1094V10.1108H26.443V24.1094ZM26.443 8.5554H1.5553V6.22161C1.5553 4.93443 2.60196 3.88781 3.88921 3.88781H6.22311V5.44321H7.77721V3.8892H20.221V5.4446H21.7765V3.8892H24.1104C25.3963 3.8892 26.443 4.93443 26.443 6.22161V8.5554Z" fill="#1C1C34"/>
</svg>
