<svg width="27" height="34" viewBox="0 0 27 34" fill="none" xmlns="http://www.w3.org/2000/svg">
<path d="M26.9298 8.19045C26.9298 7.15833 26.5198 6.16848 25.79 5.43866C25.0602 4.70884 24.0703 4.29883 23.0382 4.29883H21.0535C20.886 3.73716 20.5419 3.24448 20.0722 2.89394C19.6024 2.5434 19.0322 2.35371 18.4461 2.35302H16.8894C16.6189 1.65974 16.1454 1.06424 15.5309 0.644418C14.9164 0.224598 14.1896 0 13.4454 0C12.7012 0 11.9743 0.224598 11.3598 0.644418C10.7453 1.06424 10.2718 1.65974 10.0013 2.35302H8.48355C7.89745 2.35371 7.3272 2.5434 6.85748 2.89394C6.38776 3.24448 6.04362 3.73716 5.87616 4.29883H3.89144C2.85931 4.29883 1.86947 4.70884 1.13965 5.43866C0.409826 6.16848 -0.000183105 7.15833 -0.000183105 8.19045V30.1003C-0.000183105 31.1324 0.409826 32.1222 1.13965 32.8521C1.86947 33.5819 2.85931 33.9919 3.89144 33.9919H23.0382C24.0703 33.9919 25.0602 33.5819 25.79 32.8521C26.5198 32.1222 26.9298 31.1324 26.9298 30.1003V8.19045ZM7.35498 5.07715C7.35498 4.76752 7.47798 4.47056 7.69693 4.25162C7.91587 4.03267 8.21283 3.90967 8.52246 3.90967H10.6239C10.806 3.91334 10.9836 3.85304 11.1258 3.73927C11.2681 3.6255 11.3659 3.46546 11.4023 3.28701C11.4966 2.79888 11.758 2.35884 12.1415 2.04241C12.5249 1.72598 13.0066 1.55292 13.5037 1.55292C14.0009 1.55292 14.4826 1.72598 14.866 2.04241C15.2495 2.35884 15.5108 2.79888 15.6052 3.28701C15.6416 3.46546 15.7394 3.6255 15.8816 3.73927C16.0238 3.85304 16.2014 3.91334 16.3835 3.90967H18.485C18.6383 3.90967 18.7901 3.93987 18.9318 3.99854C19.0734 4.05721 19.2021 4.14321 19.3105 4.25162C19.419 4.36003 19.5049 4.48873 19.5636 4.63038C19.6223 4.77202 19.6525 4.92384 19.6525 5.07715V5.6609C19.6525 5.97053 19.5295 6.26749 19.3105 6.48643C19.0916 6.70538 18.7946 6.82838 18.485 6.82838H8.48355C8.17391 6.82838 7.87695 6.70538 7.65801 6.48643C7.43906 6.26749 7.31606 5.97053 7.31606 5.6609L7.35498 5.07715ZM25.3732 30.1003C25.3732 30.7195 25.1272 31.3134 24.6893 31.7513C24.2514 32.1892 23.6575 32.4352 23.0382 32.4352H3.89144C3.27216 32.4352 2.67825 32.1892 2.24036 31.7513C1.80247 31.3134 1.55646 30.7195 1.55646 30.1003V8.19045C1.55646 7.57118 1.80247 6.97727 2.24036 6.53937C2.67825 6.10148 3.27216 5.85548 3.89144 5.85548H5.75941C5.8087 6.54372 6.11732 7.18762 6.62295 7.65713C7.12858 8.12665 7.79354 8.38679 8.48355 8.38503H18.4072C19.0972 8.38679 19.7621 8.12665 20.2678 7.65713C20.7734 7.18762 21.082 6.54372 21.1313 5.85548H22.9993C23.6186 5.85548 24.2125 6.10148 24.6504 6.53937C25.0882 6.97727 25.3343 7.57118 25.3343 8.19045L25.3732 30.1003Z" fill="#1C1C34"/>
<path d="M9.18416 13.2495H5.48712C5.2807 13.2495 5.08273 13.3315 4.93677 13.4775C4.7908 13.6235 4.7088 13.8214 4.7088 14.0279V17.7249C4.7088 17.9313 4.7908 18.1293 4.93677 18.2753C5.08273 18.4212 5.2807 18.5032 5.48712 18.5032H9.18416C9.39059 18.5032 9.58856 18.4212 9.73452 18.2753C9.88049 18.1293 9.96249 17.9313 9.96249 17.7249V14.0279C9.96249 13.8214 9.88049 13.6235 9.73452 13.4775C9.58856 13.3315 9.39059 13.2495 9.18416 13.2495ZM8.40584 16.9466H6.26545V14.8062H8.40584V16.9466Z" fill="#1C1C34"/>
<path d="M21.0536 15.0786H13.5428C13.3364 15.0786 13.1384 15.1606 12.9924 15.3066C12.8465 15.4526 12.7645 15.6505 12.7645 15.857C12.7645 16.0634 12.8465 16.2613 12.9924 16.4073C13.1384 16.5533 13.3364 16.6353 13.5428 16.6353H21.0536C21.26 16.6353 21.458 16.5533 21.604 16.4073C21.7499 16.2613 21.8319 16.0634 21.8319 15.857C21.8319 15.6505 21.7499 15.4526 21.604 15.3066C21.458 15.1606 21.26 15.0786 21.0536 15.0786Z" fill="#1C1C34"/>
<path d="M9.18416 22.2003H5.48712C5.2807 22.2003 5.08273 22.2823 4.93677 22.4283C4.7908 22.5742 4.7088 22.7722 4.7088 22.9786V26.6757C4.7088 26.8821 4.7908 27.08 4.93677 27.226C5.08273 27.372 5.2807 27.454 5.48712 27.454H9.18416C9.39059 27.454 9.58856 27.372 9.73452 27.226C9.88049 27.08 9.96249 26.8821 9.96249 26.6757V22.9786C9.96249 22.7722 9.88049 22.5742 9.73452 22.4283C9.58856 22.2823 9.39059 22.2003 9.18416 22.2003ZM8.40584 25.8973H6.26545V23.7569H8.40584V25.8973Z" fill="#1C1C34"/>
<path d="M21.0536 24.0293H13.5428C13.3364 24.0293 13.1384 24.1113 12.9924 24.2573C12.8465 24.4033 12.7645 24.6012 12.7645 24.8077C12.7645 25.0141 12.8465 25.212 12.9924 25.358C13.1384 25.504 13.3364 25.586 13.5428 25.586H21.0536C21.26 25.586 21.458 25.504 21.604 25.358C21.7499 25.212 21.8319 25.0141 21.8319 24.8077C21.8319 24.6012 21.7499 24.4033 21.604 24.2573C21.458 24.1113 21.26 24.0293 21.0536 24.0293Z" fill="#1C1C34"/>
</svg>
