<svg width="69" height="143" viewBox="0 0 69 143" fill="none" xmlns="http://www.w3.org/2000/svg">
<path d="M49.2478 135.879C48.5979 139.412 42.8905 142.181 35.9681 142.181C29.0457 142.181 23.2817 139.355 22.6601 135.822L11.1039 93.0312L16.3028 86.2197L45.0944 83.3933L49.3326 87.6328L53.486 91.618L56.4528 93.0877L49.2478 135.879Z" fill="#A3A3FF"/>
<path d="M33.8487 105.015C21.287 105.015 11.1037 99.6749 11.1037 93.0877C11.1037 86.5005 21.287 81.1605 33.8487 81.1605C46.4104 81.1605 56.5938 86.5005 56.5938 93.0877C56.5938 99.6749 46.4104 105.015 33.8487 105.015Z" fill="#8C8CFF"/>
<path d="M33.8488 101.623C23.0504 101.623 14.2965 97.536 14.2965 92.4942C14.2965 87.4523 23.0504 83.365 33.8488 83.365C44.6472 83.365 53.401 87.4523 53.401 92.4942C53.401 97.536 44.6472 101.623 33.8488 101.623Z" fill="url(#paint0_linear)"/>
<path d="M38.7649 91.0527C38.7649 91.0527 48.4563 29.099 17.3761 0.948486C29.78 46.1702 28.5085 93.5399 28.5085 93.5399L38.7649 91.0527Z" fill="#4747DC"/>
<path opacity="0.5" d="M24.4966 23.0223C26.4159 23.2958 28.3697 22.8748 30.0063 21.8352C30.4634 21.5125 30.9688 21.2645 31.5038 21.1004C31.1647 20.3655 30.8539 19.6307 30.4866 18.9241C29.872 19.1385 29.2843 19.423 28.7348 19.772C27.9738 20.3386 27.0555 20.6546 26.1071 20.6764C25.132 20.8099 24.1399 20.6213 23.2816 20.1394C22.7423 19.8983 22.185 19.6998 21.6146 19.5459C21.8124 20.4503 21.9819 21.383 22.1515 22.3722H22.2928C22.9935 22.6907 23.7353 22.9095 24.4966 23.0223Z" fill="#6464F8"/>
<path opacity="0.5" d="M26.5022 30.8513C27.1688 30.9269 27.8418 30.9269 28.5083 30.8513C30.0224 30.7933 31.4862 30.2921 32.7183 29.4098C33.2593 29.0529 33.8494 28.7768 34.4701 28.5902C34.1875 27.7423 33.8767 26.8944 33.5659 26.0465C32.7546 26.2904 31.9834 26.6523 31.2773 27.1205C30.4011 27.7186 29.3806 28.0707 28.3222 28.1403C27.2637 28.2099 26.206 27.9944 25.259 27.5162C24.5721 27.2007 23.8517 26.9637 23.1117 26.8096C23.3001 27.7894 23.4696 28.7315 23.6203 29.636L24.1571 29.8621C24.8846 30.308 25.6752 30.6415 26.5022 30.8513Z" fill="#6464F8"/>
<path opacity="0.5" d="M30.8815 37.4366C31.949 37.4279 32.9973 37.7219 33.9047 38.2845C34.9066 38.9075 36.0371 39.2941 37.2105 39.4151C37.0128 38.4541 36.7867 37.4931 36.5606 36.5887C36.0862 36.4342 35.6311 36.2256 35.2044 35.9669C34.4956 35.5503 33.7358 35.2273 32.944 35.006C30.8009 34.5221 28.5554 34.8229 26.615 35.8538C25.9819 36.231 25.2812 36.4806 24.5524 36.5887C24.6936 37.4931 24.8067 38.3976 24.9197 39.2737C25.9147 39.1223 26.8729 38.7868 27.7452 38.2845C28.6772 37.6829 29.7734 37.3866 30.8815 37.4366Z" fill="#6464F8"/>
<path opacity="0.5" d="M32.8597 47.8096C34.2429 47.7899 35.6006 48.1835 36.7589 48.9401C37.4972 49.3594 38.2728 49.7095 39.0757 49.9859C38.9062 48.6104 38.7084 47.2255 38.4824 45.8311C37.5578 45.2772 36.5588 44.8584 35.5156 44.5875C34.6574 44.368 33.7738 44.2634 32.888 44.2766C30.9079 44.1963 28.9464 44.6869 27.237 45.6898L25.8808 46.3116C25.8808 47.4987 26.1633 48.6857 26.2763 49.8728C27.1769 49.6159 28.0481 49.2654 28.8758 48.827C30.0708 48.0937 31.4595 47.7391 32.8597 47.8096Z" fill="#6464F8"/>
<path opacity="0.5" d="M31.3061 61.6584C32.1721 61.8208 33.0533 61.8872 33.9338 61.8563C35.9346 61.856 37.8943 61.2875 39.5848 60.217L40.0369 59.9626C40.0369 58.719 39.8956 57.4754 39.7825 56.2036C39.1098 56.4642 38.4581 56.776 37.833 57.1363C36.6753 57.9006 35.3209 58.3129 33.9338 58.3233C32.5403 58.4022 31.1544 58.0679 29.9499 57.3624C29.0592 56.8753 28.1096 56.5049 27.1245 56.2601C27.1245 57.5602 27.3505 58.8038 27.4353 60.0474L28.4524 60.5279C29.3478 61.0328 30.3079 61.4131 31.3061 61.6584Z" fill="#6464F8"/>
<path opacity="0.5" d="M34.2165 72.3704C35.6016 72.3915 36.9491 72.8244 38.0874 73.614C38.7271 73.9996 39.3982 74.3305 40.0935 74.6032C40.0935 73.3596 40.0935 72.0595 40.0935 70.7029C39.9933 70.6569 39.8986 70.6 39.811 70.5333C38.9285 69.9737 37.9793 69.5275 36.9855 69.2049C36.1247 68.9915 35.244 68.8684 34.3578 68.8375C32.3915 68.7143 30.4309 69.1556 28.7068 70.1093L28.0004 70.4202C28.0004 71.7203 28.1417 72.9357 28.1982 74.1227C28.9062 73.904 29.5958 73.63 30.2608 73.3031C31.4602 72.6129 32.8352 72.2886 34.2165 72.3704Z" fill="#6464F8"/>
<path opacity="0.5" d="M36.8718 80.3974C36.023 80.172 35.1503 80.0486 34.2724 80.0299C32.3065 79.913 30.3477 80.354 28.6214 81.3019H28.4519C28.4519 82.6585 28.4519 83.9304 28.4519 85.0892C29.011 84.8954 29.5582 84.6688 30.0907 84.4108C31.3051 83.7494 32.6749 83.4266 34.0567 83.4763C35.4386 83.526 36.7817 83.9464 37.9455 84.6935L39.3582 85.4566C39.3582 84.3261 39.5842 83.0259 39.669 81.6128C38.7958 81.0831 37.8548 80.6742 36.8718 80.3974Z" fill="#6464F8"/>
<path opacity="0.5" d="M23.7622 13.3845C24.707 13.3746 25.6328 13.6505 26.4182 14.1759C27.0574 14.5441 27.741 14.8291 28.4525 15.0238C27.7461 13.8084 27.0115 12.6213 26.2487 11.4343C26.0509 11.4343 25.8531 11.2647 25.5988 11.2082C25.0136 11.0785 24.4178 11.0028 23.8188 10.9821C22.52 10.939 21.233 11.2413 20.0891 11.8582C20.2869 12.6779 20.4564 13.4693 20.626 14.2606L21.0781 14.0628C21.8855 13.5749 22.82 13.3388 23.7622 13.3845Z" fill="#6464F8"/>
<path d="M37.324 92.8614C37.324 92.8614 37.4935 38.0866 68.2064 18.1043C57.414 43.15 49.8928 69.4823 45.8286 96.4509L37.324 92.8614Z" fill="#554FF0"/>
<path d="M59.137 36.1649C58.613 36.1602 58.0914 36.0938 57.583 35.967C56.4393 35.7311 55.3832 35.1834 54.5315 34.3843C54.1844 34.0393 53.7836 33.7529 53.3448 33.5364L54.5315 31.784C55.0298 32.0588 55.4945 32.3908 55.916 32.7732C56.4964 33.3702 57.2459 33.7746 58.0633 33.932C58.8464 34.1686 59.6819 34.1686 60.465 33.932C60.9539 33.7951 61.4558 33.7099 61.9625 33.6777L61.1148 35.967C60.4684 36.1274 59.8023 36.194 59.137 36.1649Z" fill="#6464F8"/>
<path d="M56.3108 42.7503C54.3902 42.7163 52.5456 41.9943 51.112 40.7154C50.7066 40.3282 50.2385 40.0129 49.7275 39.7827C50.0948 39.0761 50.4621 38.3695 50.8577 37.6912C51.5204 38.0109 52.1302 38.4303 52.666 38.9348C53.3389 39.5807 54.1817 40.0218 55.0959 40.2066C56.0156 40.4953 57.0016 40.4953 57.9213 40.2066C58.5535 40.0084 59.209 39.8944 59.8709 39.8675L59.0233 42.3547H58.5429C57.8204 42.588 57.0694 42.7211 56.3108 42.7503Z" fill="#6464F8"/>
<path d="M51.4231 47.8094C50.4684 47.6447 49.4864 47.7625 48.5977 48.1485C47.6473 48.5308 46.6259 48.7043 45.6027 48.6573C45.9135 47.8376 46.2243 47.0462 46.5633 46.2548C46.9884 46.1852 47.405 46.0715 47.8066 45.9157C48.4714 45.634 49.1775 45.4622 49.8974 45.4069C50.4888 45.339 51.086 45.339 51.6774 45.4069C52.9804 45.5839 54.2108 46.1114 55.2375 46.9332C55.7281 47.3483 56.2941 47.665 56.9045 47.8659L56.2264 50.127C55.353 49.858 54.5382 49.4265 53.8248 48.8551C53.1381 48.2881 52.3059 47.9257 51.4231 47.8094Z" fill="#6464F8"/>
<path d="M48.3999 56.2885C47.2067 56.0741 45.9767 56.2217 44.8681 56.7124C44.1729 56.9785 43.4538 57.1772 42.7207 57.3059C43.0598 56.1471 43.4271 54.9601 43.7944 53.8013C44.6947 53.4279 45.6483 53.1991 46.6199 53.123C47.3894 53.03 48.1673 53.03 48.9368 53.123C50.6396 53.3222 52.2487 54.0092 53.5705 55.1014C53.9245 55.3658 54.2924 55.611 54.6725 55.8362L53.8248 58.8604C53.0887 58.5046 52.3885 58.0787 51.734 57.5886C50.7741 56.8377 49.6146 56.3856 48.3999 56.2885Z" fill="#6464F8"/>
<path d="M47.8345 68.5548C47.0665 68.577 46.2986 68.5107 45.5459 68.357C43.8444 68.0814 42.2566 67.3265 40.9686 66.1807L40.6013 65.8981C40.8556 64.8523 41.0816 63.7783 41.3642 62.676C41.9054 63.0096 42.4244 63.3778 42.9182 63.7783C43.8058 64.6001 44.9167 65.141 46.111 65.3328C47.3004 65.5792 48.5354 65.4812 49.671 65.0502C50.5805 64.73 51.533 64.5489 52.4965 64.5132C52.2139 65.5872 51.9314 66.6612 51.6771 67.7352C51.3596 67.7932 51.0477 67.8783 50.7447 67.9896C49.8074 68.3192 48.827 68.5096 47.8345 68.5548Z" fill="#6464F8"/>
<path d="M43.8505 77.4014C42.6489 77.2238 41.4215 77.4005 40.3187 77.9102C39.709 78.1704 39.0748 78.3693 38.4257 78.5037C38.5669 77.4297 38.7365 76.2991 38.906 75.1403H39.1885C40.0899 74.76 41.0416 74.5125 42.014 74.4055C42.7847 74.3359 43.5601 74.3359 44.3309 74.4055C46.0426 74.5775 47.6697 75.2345 49.0212 76.2992L49.5862 76.6666C49.3602 77.7689 49.1342 78.8146 48.9082 79.8321C48.3278 79.5352 47.7705 79.1951 47.2411 78.8146C46.28 78.0111 45.0977 77.5184 43.8505 77.4014Z" fill="#6464F8"/>
<path d="M40.4319 83.9585C41.1925 83.8747 41.9599 83.8747 42.7205 83.9585C44.4406 84.1314 46.0765 84.788 47.4391 85.8522C47.213 87.0393 47.0152 88.1133 46.8457 89.1307C46.3654 88.8481 45.9133 88.5655 45.5177 88.2829C44.5554 87.5585 43.4189 87.1012 42.2232 86.9572C41.0275 86.8133 39.815 86.9879 38.7083 87.4632L37.3804 87.9154C37.3804 86.9262 37.5216 85.7957 37.6347 84.5521C38.5327 84.2174 39.4753 84.0173 40.4319 83.9585Z" fill="#6464F8"/>
<path d="M60.9732 28.025C60.1624 27.8789 59.3264 27.9773 58.5716 28.3077C57.9771 28.5541 57.348 28.7066 56.7068 28.7599C57.4696 27.8272 58.2608 26.8945 59.1084 25.9335H59.7018C60.2184 25.8798 60.7392 25.8798 61.2558 25.9335C62.3892 26.0628 63.4648 26.503 64.3638 27.2054L63.5444 29.2121L63.2054 28.9577C62.5721 28.4292 61.7942 28.1041 60.9732 28.025Z" fill="#6464F8"/>
<path d="M30.8822 96.2815C30.8822 96.2815 30.7127 41.5068 -0.000204086 21.5245C10.815 46.5543 18.3462 72.879 22.4058 99.8428L30.8822 96.2815Z" fill="#554FF0"/>
<path d="M9.32396 39.5848C9.84793 39.5802 10.3695 39.5138 10.878 39.387C12.0316 39.1626 13.0933 38.6021 13.9295 37.776C14.285 37.4489 14.6844 37.1731 15.1161 36.9563C14.7488 36.3628 14.3533 35.7693 13.9577 35.204C13.4448 35.4692 12.9697 35.8019 12.545 36.1932C11.964 36.7743 11.2285 37.1765 10.4259 37.352C9.63328 37.5893 8.78859 37.5893 7.99599 37.352C7.49562 37.2179 6.98548 37.1233 6.47027 37.0694L7.31791 39.3587H7.45919C8.06723 39.5206 8.69486 39.5967 9.32396 39.5848Z" fill="#6464F8"/>
<path d="M12.1495 46.1418C12.7388 46.1382 13.326 46.0719 13.9013 45.9439C15.2002 45.6847 16.3969 45.0567 17.3484 44.1351C17.7576 43.7453 18.2246 43.4211 18.7328 43.1741L17.6309 41.0826C16.9669 41.4149 16.3495 41.833 15.7944 42.3262C15.1394 42.9869 14.3039 43.4392 13.3927 43.6263C12.4722 43.9097 11.4877 43.9097 10.5672 43.6263C9.93056 43.4523 9.27684 43.348 8.61763 43.3154L9.46529 45.8026H9.94561C10.6589 46.0263 11.402 46.1407 12.1495 46.1418Z" fill="#6464F8"/>
<path d="M16.9238 51.1161C17.8773 50.9157 18.8702 51.0349 19.7492 51.4552C20.7114 51.8285 21.7421 51.9923 22.7725 51.9358L21.8118 49.5616C21.3767 49.4823 20.9507 49.3593 20.5404 49.1942C19.8671 48.9388 19.1649 48.7678 18.4495 48.6854C17.8675 48.6186 17.2797 48.6186 16.6977 48.6854C15.3813 48.8443 14.1371 49.3736 13.1094 50.2117C12.6206 50.6229 12.0535 50.9306 11.4423 51.1161C11.6684 51.8792 11.9227 52.6423 12.1487 53.4054C13.009 53.1256 13.8126 52.6949 14.5221 52.1336C15.212 51.5768 16.0439 51.2243 16.9238 51.1161Z" fill="#6464F8"/>
<path d="M19.9758 59.7931C21.1687 59.5698 22.4014 59.7177 23.5076 60.217C24.193 60.4834 24.9027 60.6822 25.6267 60.8106C25.2876 59.6235 24.9203 58.4647 24.553 57.3059C23.6517 56.9357 22.6986 56.7068 21.7275 56.6275C20.9668 56.5466 20.1996 56.5466 19.4389 56.6275C17.7281 56.848 16.1132 57.5432 14.7769 58.6343C14.427 58.896 14.0588 59.1321 13.675 59.3409C13.9858 60.3866 14.2401 61.3758 14.5226 62.3933C15.2623 62.044 15.9631 61.6177 16.6134 61.1215C17.5707 60.3429 18.745 59.8789 19.9758 59.7931Z" fill="#6464F8"/>
<path d="M20.5411 71.9746C21.3086 71.9838 22.0752 71.9175 22.8298 71.7768C24.5336 71.5088 26.1235 70.753 27.4071 69.6005L27.7744 69.3179C27.5483 68.2439 27.294 67.1698 27.0397 66.0958C26.495 66.4135 25.9755 66.7726 25.4857 67.1699C24.5696 67.9642 23.4589 68.5005 22.2673 68.724C21.0757 68.9475 19.8461 68.8501 18.7046 68.4417C17.8427 68.1619 16.9515 67.9817 16.0486 67.9047C16.3029 69.007 16.5855 70.081 16.8398 71.1267L17.7722 71.4094C18.6679 71.713 19.5981 71.9028 20.5411 71.9746Z" fill="#6464F8"/>
<path d="M24.5249 80.8211C25.7266 80.6467 26.953 80.8234 28.0567 81.3299C28.6566 81.5903 29.2815 81.7892 29.9215 81.9234C29.9215 80.8494 29.639 79.7189 29.4412 78.5601H29.1587C28.262 78.166 27.3082 77.9179 26.3332 77.8252C25.5734 77.7273 24.8043 77.7273 24.0446 77.8252C22.3274 77.9899 20.6918 78.6365 19.326 79.6906L18.761 80.0863C19.0152 81.1603 19.2413 82.2343 19.439 83.2518C20.023 82.9614 20.5808 82.6209 21.1061 82.2343C22.0749 81.4255 23.2679 80.9324 24.5249 80.8211Z" fill="#6464F8"/>
<path d="M28.0568 87.3783C25.5588 87.1243 23.0546 87.7983 21.0213 89.2719H20.8801C21.1061 90.4308 21.3039 91.5331 21.4734 92.5223C21.9373 92.2851 22.3814 92.011 22.8014 91.7026C23.768 90.9758 24.9094 90.5172 26.11 90.3732C27.3107 90.2293 28.5281 90.4052 29.639 90.883C30.0346 91.0526 30.4867 91.1939 30.9388 91.3352C30.9388 90.3459 30.9387 89.2154 30.6845 87.9718C29.84 87.654 28.9558 87.4542 28.0568 87.3783Z" fill="#6464F8"/>
<path d="M7.37445 31.3601C8.18828 31.2343 9.0211 31.3421 9.77611 31.671C10.3717 31.914 11.0002 32.0664 11.6409 32.1232C10.8781 31.1622 10.0869 30.2578 9.26755 29.2968C9.07086 29.2674 8.87087 29.2674 8.67418 29.2968C8.14896 29.2288 7.61716 29.2288 7.09193 29.2968C5.96338 29.4115 4.89294 29.8536 4.01218 30.5687L4.80331 32.5472L5.17059 32.3211C5.79261 31.7875 6.56029 31.4528 7.37445 31.3601Z" fill="#6464F8"/>
<defs>
<linearGradient id="paint0_linear" x1="53.401" y1="92.4942" x2="14.2965" y2="92.4942" gradientUnits="userSpaceOnUse">
<stop stop-color="#2D2D9F"/>
<stop offset="1" stop-color="#403CB8"/>
</linearGradient>
</defs>
</svg>
