<svg width="210" height="213" viewBox="0 0 210 213" fill="none" xmlns="http://www.w3.org/2000/svg">
<path opacity="0.05" d="M138.041 107.041C138.041 125.289 123.248 140.083 105 140.083C86.7517 140.083 71.9586 125.289 71.9586 107.041C71.9586 88.7931 86.7517 74 105 74C123.248 74 138.041 88.7931 138.041 107.041ZM86.8272 107.041C86.8272 117.078 94.9634 125.214 105 125.214C115.036 125.214 123.173 117.078 123.173 107.041C123.173 97.0048 115.036 88.8686 105 88.8686C94.9634 88.8686 86.8272 97.0048 86.8272 107.041Z" fill="#4527A0"/>
<path d="M128.414 117.41C132.168 119.073 136.652 117.374 137.435 113.343C138.205 109.378 138.246 105.284 137.532 101.265C136.383 94.7915 133.328 88.8078 128.759 84.0798C124.19 79.3518 118.314 76.0946 111.883 74.7249C107.891 73.8747 103.798 73.7757 99.8089 74.4103C95.7541 75.0553 93.9026 79.4786 95.4361 83.2873C96.9695 87.096 101.374 88.7668 105.478 88.8749C106.585 88.904 107.692 89.0344 108.786 89.2672C112.323 90.0206 115.554 91.8121 118.067 94.4125C120.581 97.0129 122.261 100.304 122.893 103.865C123.088 104.965 123.181 106.076 123.172 107.183C123.14 111.289 124.659 115.748 128.414 117.41Z" fill="url(#paint0_linear)"/>
<path opacity="0.05" d="M135.158 76.8828C138.098 73.9435 138.125 69.1237 134.78 66.6567C126.657 60.6668 116.862 57.2293 106.659 56.8917C93.9324 56.4706 81.5217 60.904 71.9422 69.2932C62.3627 77.6825 56.3311 89.4 55.0697 102.071C53.8084 114.742 57.4118 127.419 65.1495 137.532C72.8873 147.645 84.1805 154.438 96.7405 156.534C109.3 158.63 122.188 155.872 132.79 148.82C143.392 141.767 150.917 130.948 153.838 118.554C156.181 108.617 155.424 98.2648 151.767 88.8583C150.26 84.984 145.601 83.7503 141.995 85.8187C138.39 87.8871 137.232 92.4794 138.487 96.4425C140.385 102.441 140.652 108.887 139.187 115.1C137.142 123.776 131.875 131.35 124.453 136.286C117.031 141.223 108.01 143.153 99.2183 141.686C90.4264 140.219 82.5211 135.464 77.1047 128.385C71.6883 121.305 69.1659 112.432 70.0488 103.562C70.9317 94.6924 75.1539 86.4901 81.8595 80.6176C88.5652 74.7452 97.2527 71.6418 106.161 71.9366C112.542 72.1476 118.693 74.0903 123.987 77.4913C127.484 79.7383 132.219 79.8221 135.158 76.8828Z" fill="#4527A0"/>
<path d="M62.3974 109.061C58.2452 109.258 54.982 112.805 55.7971 116.881C57.3125 124.458 60.5652 131.619 65.3407 137.78C71.6606 145.934 80.3402 151.942 90.1975 154.985C100.055 158.029 110.611 157.96 120.427 154.788C130.244 151.616 138.844 145.495 145.057 137.259C151.27 129.024 154.794 119.073 155.147 108.763C155.501 98.4522 152.669 88.2834 147.035 79.6409C141.402 70.9985 133.241 64.3025 123.665 60.465C116.429 57.5653 108.651 56.4041 100.948 57.0281C96.8051 57.3637 94.2908 61.4756 95.2418 65.5221C96.1929 69.5686 100.263 71.9909 104.419 71.9221C109.065 71.8453 113.706 72.6908 118.065 74.4379C124.769 77.1241 130.481 81.8113 134.425 87.861C138.368 93.9107 140.351 101.029 140.103 108.246C139.855 115.463 137.389 122.429 133.04 128.194C128.691 133.959 122.671 138.243 115.799 140.464C108.927 142.684 101.538 142.732 94.6382 140.602C87.7381 138.472 81.6624 134.266 77.2384 128.558C74.3613 124.846 72.2737 120.616 71.0716 116.127C69.9963 112.112 66.5495 108.864 62.3974 109.061Z" fill="url(#paint1_linear)"/>
<path opacity="0.05" d="M147.449 64.5928C150.495 61.5464 150.52 56.5663 147.144 53.8896C135.81 44.9025 121.836 39.7293 107.243 39.2465C90.0385 38.6773 73.261 44.6705 60.3109 56.0115C47.3609 67.3525 39.207 83.1929 37.5019 100.322C35.7968 117.452 40.668 134.589 51.1283 148.26C61.5885 161.931 76.8553 171.114 93.8346 173.948C110.814 176.781 128.235 173.053 142.568 163.52C156.901 153.986 167.073 139.359 171.022 122.605C174.372 108.394 173.033 93.5529 167.323 80.2632C165.622 76.3049 160.809 75.0264 157.072 77.1701C153.335 79.3138 152.105 84.0681 153.669 88.0825C157.486 97.8824 158.278 108.671 155.837 119.025C152.796 131.926 144.964 143.189 133.927 150.53C122.891 157.871 109.477 160.741 96.4026 158.559C83.3287 156.377 71.5732 149.307 63.5188 138.78C55.4644 128.253 51.7136 115.057 53.0265 101.868C54.3394 88.678 60.6179 76.4809 70.5894 67.7484C80.561 59.0158 93.4797 54.401 106.727 54.8393C117.36 55.191 127.565 58.7766 136.026 65.0241C139.492 67.5832 144.402 67.6391 147.449 64.5928Z" fill="#4527A0"/>
<path d="M95.1634 47.8215C94.4575 43.5715 97.3342 39.5064 101.637 39.2927C113.247 38.7164 124.857 41.1322 135.332 46.369C148.143 52.7733 158.597 63.0679 165.198 75.7779C171.799 88.4879 174.207 102.961 172.078 117.124C169.95 131.287 163.393 144.412 153.347 154.62C143.301 164.828 130.282 171.594 116.156 173.95C102.029 176.305 87.5188 174.128 74.7048 167.732C61.8907 161.335 51.43 151.047 44.8214 138.341C39.4176 127.951 36.8161 116.381 37.2065 104.764C37.3512 100.458 41.3697 97.5163 45.6304 98.1541C49.8912 98.7919 52.7663 102.773 52.7696 107.081C52.776 115.42 54.7798 123.677 58.6625 131.142C63.7511 140.926 71.8059 148.848 81.6727 153.773C91.5395 158.698 102.712 160.374 113.59 158.561C124.468 156.747 134.492 151.537 142.227 143.677C149.962 135.817 155.011 125.71 156.65 114.805C158.29 103.9 156.435 92.7552 151.352 82.9684C146.27 73.1817 138.22 65.2549 128.356 60.3236C120.83 56.5609 112.542 54.6896 104.204 54.8167C99.8961 54.8824 95.8694 52.0714 95.1634 47.8215Z" fill="url(#paint2_linear)"/>
<path opacity="0.05" d="M159.885 52.1562C162.883 49.1583 162.903 44.2672 159.648 41.5508C145.113 29.4213 126.886 22.4228 107.82 21.7921C86.186 21.0763 65.089 28.6126 48.8048 42.8734C32.5206 57.1343 22.2675 77.0529 20.1234 98.5924C17.9793 120.132 24.1046 141.681 37.258 158.872C50.4113 176.063 69.6087 187.61 90.9594 191.174C112.31 194.737 134.217 190.049 152.24 178.061C170.263 166.072 183.054 147.68 188.02 126.612C192.397 108.044 190.408 88.6217 182.502 71.4205C180.731 67.5682 176.005 66.3088 172.327 68.4184C168.65 70.5281 167.422 75.207 169.116 79.0934C175.127 92.8824 176.559 108.316 173.076 123.089C169.004 140.365 158.515 155.447 143.737 165.277C128.958 175.108 110.994 178.951 93.4867 176.03C75.9791 173.108 60.2372 163.639 49.4515 149.543C38.6657 135.446 33.6429 117.776 35.4011 100.113C37.1593 82.4508 45.5668 66.1175 58.9199 54.4236C72.2729 42.7297 89.5725 36.55 107.312 37.1369C122.482 37.6388 137.004 43.0567 148.741 52.4642C152.05 55.1158 156.887 55.1541 159.885 52.1562Z" fill="#4527A0"/>
<path d="M190.296 107.041C190.296 154.149 152.107 192.337 105 192.337C57.8921 192.337 19.7039 154.149 19.7039 107.041C19.7039 59.9337 57.8921 21.7454 105 21.7454C152.107 21.7454 190.296 59.9337 190.296 107.041ZM35.0571 107.041C35.0571 145.669 66.3715 176.984 105 176.984C143.628 176.984 174.942 145.669 174.942 107.041C174.942 68.413 143.628 37.0987 105 37.0987C66.3715 37.0987 35.0571 68.413 35.0571 107.041Z" fill="url(#paint3_linear)"/>
<path opacity="0.05" d="M172.935 39.1059C176.421 35.6205 176.443 29.9361 172.674 26.7591C154.716 11.6201 132.119 2.88099 108.472 2.09866C81.8401 1.21758 55.8695 10.4948 35.8235 28.05C15.7775 45.6053 3.15578 70.1254 0.516374 96.6407C-2.12303 123.156 5.41734 149.683 21.6093 170.846C37.8012 192.008 61.4334 206.223 87.7162 210.609C113.999 214.995 140.967 209.225 163.153 194.467C185.339 179.709 201.085 157.068 207.199 131.133C212.627 108.104 210.102 84.0077 200.185 62.7154C198.104 58.2471 192.612 56.7822 188.336 59.2349C184.061 61.6876 182.63 67.1278 184.632 71.6317C192.339 88.9611 194.214 108.42 189.825 127.037C184.751 148.564 171.682 167.356 153.267 179.604C134.852 191.853 112.469 196.643 90.6545 193.002C68.8397 189.362 49.225 177.564 35.7857 159.999C22.3464 142.434 16.0879 120.416 18.2786 98.4088C20.4693 76.4011 30.9453 56.0494 47.5835 41.4785C64.2217 26.9077 85.7773 19.2076 107.882 19.9389C126.999 20.5714 145.29 27.4696 160.001 39.4393C163.825 42.5502 169.45 42.5914 172.935 39.1059Z" fill="#4527A0"/>
<path d="M95.1658 11.4709C94.6613 6.56763 98.2304 2.14377 103.159 2.05727C123.282 1.70409 143.152 7.1438 160.36 17.821C177.568 28.4982 191.265 43.8872 199.884 62.0742C201.995 66.5285 199.616 71.6908 194.999 73.416C190.381 75.1411 185.28 72.7702 183.092 68.3533C175.909 53.8531 164.799 41.5821 150.949 32.9884C137.099 24.3948 121.171 19.8889 104.989 19.8911C100.06 19.8918 95.6704 16.3741 95.1658 11.4709Z" fill="url(#paint4_linear)"/>
<path d="M105.567 13.9588H104.571V6.27713H101.858V5.39236H108.28V6.27713H105.567V13.9588ZM113.678 13.9588L113.484 13.0447H113.437C113.117 13.4471 112.797 13.7205 112.476 13.865C112.16 14.0056 111.764 14.076 111.287 14.076C110.65 14.076 110.15 13.9119 109.787 13.5838C109.428 13.2556 109.248 12.7888 109.248 12.1834C109.248 10.8865 110.285 10.2068 112.359 10.1443L113.449 10.1092V9.71072C113.449 9.20682 113.34 8.83572 113.121 8.59744C112.906 8.35526 112.56 8.23416 112.084 8.23416C111.549 8.23416 110.943 8.39822 110.267 8.72635L109.969 7.98221C110.285 7.81033 110.631 7.67557 111.006 7.57791C111.385 7.48026 111.764 7.43143 112.142 7.43143C112.908 7.43143 113.474 7.60135 113.842 7.94119C114.213 8.28104 114.398 8.82596 114.398 9.57596V13.9588H113.678ZM111.48 13.2732C112.086 13.2732 112.56 13.1072 112.904 12.7752C113.252 12.4431 113.426 11.9783 113.426 11.3806V10.8006L112.453 10.8416C111.68 10.8689 111.121 10.99 110.777 11.2049C110.437 11.4158 110.267 11.7459 110.267 12.1951C110.267 12.5467 110.373 12.8142 110.584 12.9978C110.799 13.1814 111.098 13.2732 111.48 13.2732Z" fill="#FCFCFC"/>
<path d="M105.567 32.3608H104.571V24.6792H101.858V23.7944H108.28V24.6792H105.567V32.3608ZM110.701 32.3608H109.728V25.939H110.701V32.3608ZM109.646 24.1987C109.646 23.9761 109.701 23.814 109.811 23.7124C109.92 23.6069 110.057 23.5542 110.221 23.5542C110.377 23.5542 110.512 23.6069 110.625 23.7124C110.738 23.8179 110.795 23.98 110.795 24.1987C110.795 24.4175 110.738 24.5815 110.625 24.6909C110.512 24.7964 110.377 24.8491 110.221 24.8491C110.057 24.8491 109.92 24.7964 109.811 24.6909C109.701 24.5815 109.646 24.4175 109.646 24.1987Z" fill="#FCFCFC"/>
<path d="M106.721 50.7629L103.815 43.1692H103.768C103.823 43.7707 103.85 44.4856 103.85 45.3137V50.7629H102.93V42.1965H104.43L107.143 49.2629H107.19L109.927 42.1965H111.415V50.7629H110.419V45.2434C110.419 44.6106 110.446 43.9231 110.501 43.1809H110.454L107.524 50.7629H106.721Z" fill="#FCFCFC"/>
<path d="M109.768 63.7173C109.768 65.1313 109.384 66.2133 108.614 66.9633C107.848 67.7094 106.745 68.0825 105.303 68.0825H102.93V59.5161H105.555C106.887 59.5161 107.923 59.8852 108.661 60.6235C109.399 61.3618 109.768 62.393 109.768 63.7173ZM108.714 63.7524C108.714 62.6352 108.432 61.7934 107.87 61.227C107.311 60.6606 106.479 60.3774 105.374 60.3774H103.927V67.2212H105.139C106.327 67.2212 107.22 66.9301 107.817 66.3481C108.415 65.7622 108.714 64.8969 108.714 63.7524Z" fill="#FCFCFC"/>
<path d="M106.598 77.6032C105.657 77.6032 104.913 77.9177 104.366 78.5466C103.823 79.1716 103.552 80.029 103.552 81.1189C103.552 82.24 103.813 83.1071 104.337 83.7204C104.864 84.3298 105.614 84.6345 106.587 84.6345C107.184 84.6345 107.866 84.5271 108.632 84.3122V85.1853C108.038 85.4079 107.305 85.5193 106.434 85.5193C105.173 85.5193 104.198 85.1364 103.511 84.3708C102.827 83.6052 102.485 82.5173 102.485 81.1071C102.485 80.2243 102.649 79.4509 102.977 78.7868C103.309 78.1228 103.786 77.6111 104.407 77.2517C105.032 76.8923 105.766 76.7126 106.61 76.7126C107.509 76.7126 108.294 76.8767 108.966 77.2048L108.544 78.0603C107.895 77.7556 107.247 77.6032 106.598 77.6032Z" fill="#FCFCFC"/>
<defs>
<linearGradient id="paint0_linear" x1="105" y1="107" x2="105" y2="140.083" gradientUnits="userSpaceOnUse">
<stop stop-color="#E1D7FF"/>
<stop offset="1" stop-color="#99CB60"/>
</linearGradient>
<linearGradient id="paint1_linear" x1="105" y1="56.8643" x2="105" y2="157.218" gradientUnits="userSpaceOnUse">
<stop stop-color="#CEBCFF"/>
<stop offset="1" stop-color="#F29F9B"/>
</linearGradient>
<linearGradient id="paint2_linear" x1="105" y1="39.2094" x2="105" y2="174.873" gradientUnits="userSpaceOnUse">
<stop offset="0.328125" stop-color="#A787FF"/>
<stop offset="1" stop-color="#CC8095"/>
</linearGradient>
<linearGradient id="paint3_linear" x1="105" y1="21.7454" x2="105" y2="192.337" gradientUnits="userSpaceOnUse">
<stop stop-color="#E95E83"/>
<stop offset="1" stop-color="#D638D9"/>
</linearGradient>
<linearGradient id="paint4_linear" x1="105" y1="2.04124" x2="105" y2="212.041" gradientUnits="userSpaceOnUse">
<stop offset="0.333333" stop-color="#E02C5C"/>
<stop offset="1" stop-color="#AE2146"/>
</linearGradient>
</defs>
</svg>
