<svg width="210" height="213" viewBox="0 0 210 213" fill="none" xmlns="http://www.w3.org/2000/svg">
<path opacity="0.05" d="M138.041 107.041C138.041 125.289 123.248 140.083 105 140.083C86.7517 140.083 71.9586 125.289 71.9586 107.041C71.9586 88.7931 86.7517 74 105 74C123.248 74 138.041 88.7931 138.041 107.041ZM86.8272 107.041C86.8272 117.078 94.9634 125.214 105 125.214C115.036 125.214 123.173 117.078 123.173 107.041C123.173 97.0048 115.036 88.8686 105 88.8686C94.9634 88.8686 86.8272 97.0048 86.8272 107.041Z" fill="#4527A0"/>
<path d="M116.561 84.1927C118.415 80.5291 116.949 75.9637 112.964 74.9741C110.83 74.4441 108.642 74.127 106.433 74.0311C104.224 73.9352 102.017 74.0615 99.8454 74.4045C95.7899 75.045 93.9335 79.4662 95.4627 83.2766C96.9919 87.087 101.394 88.7627 105.499 88.8754C105.595 88.8781 105.692 88.8815 105.788 88.8857C105.885 88.8899 105.981 88.8948 106.078 88.9005C110.176 89.144 114.707 87.8562 116.561 84.1927Z" fill="url(#paint0_linear)"/>
<path opacity="0.05" d="M155.177 107.041C155.177 134.753 132.712 157.218 105 157.218C77.288 157.218 54.823 134.753 54.823 107.041C54.823 79.3293 77.288 56.8643 105 56.8643C132.712 56.8643 155.177 79.3293 155.177 107.041ZM69.8761 107.041C69.8761 126.44 85.6016 142.165 105 142.165C124.398 142.165 140.124 126.44 140.124 107.041C140.124 87.6429 124.398 71.9174 105 71.9174C85.6016 71.9174 69.8761 87.6429 69.8761 107.041Z" fill="#4527A0"/>
<path d="M130.183 72.6191C132.637 69.2642 131.926 64.4973 128.242 62.5719C124.074 60.3932 119.609 58.8056 114.975 57.8657C110.341 56.9258 105.61 56.648 100.922 57.0302C96.779 57.3681 94.2669 61.4812 95.2201 65.5272C96.1732 69.5733 100.244 71.9934 104.4 71.9225C106.938 71.8791 109.48 72.1109 111.982 72.6184C114.484 73.1259 116.916 73.9031 119.236 74.9318C123.036 76.6166 127.728 75.9739 130.183 72.6191Z" fill="url(#paint1_linear)"/>
<path opacity="0.05" d="M172.832 107.041C172.832 144.504 142.463 174.873 105 174.873C67.5377 174.873 37.1683 144.504 37.1683 107.041C37.1683 69.5788 67.5377 39.2094 105 39.2094C142.463 39.2094 172.832 69.5788 172.832 107.041ZM52.7696 107.041C52.7696 135.887 76.154 159.272 105 159.272C133.846 159.272 157.231 135.887 157.231 107.041C157.231 78.1951 133.846 54.8107 105 54.8107C76.154 54.8107 52.7696 78.1951 52.7696 107.041Z" fill="#4527A0"/>
<path d="M149.124 66.3366C152.29 63.4154 152.515 58.4405 149.25 55.63C142.728 50.0169 135.179 45.6798 126.995 42.8743C118.81 40.0689 110.188 38.8629 101.594 39.2949C97.2915 39.5113 94.4174 43.5782 95.126 47.8277C95.8346 52.0772 99.863 54.8857 104.171 54.8173C110.191 54.7217 116.203 55.6676 121.936 57.6327C127.669 59.5978 132.997 62.5389 137.693 66.3078C141.053 69.0044 145.957 69.2578 149.124 66.3366Z" fill="url(#paint2_linear)"/>
<path opacity="0.05" d="M190.296 107.041C190.296 154.149 152.107 192.337 105 192.337C57.8921 192.337 19.7039 154.149 19.7039 107.041C19.7039 59.9337 57.8921 21.7454 105 21.7454C152.107 21.7454 190.296 59.9337 190.296 107.041ZM35.0571 107.041C35.0571 145.669 66.3715 176.984 105 176.984C143.628 176.984 174.942 145.669 174.942 107.041C174.942 68.413 143.628 37.0987 105 37.0987C66.3715 37.0987 35.0571 68.413 35.0571 107.041Z" fill="#4527A0"/>
<path d="M95.094 30.0567C94.553 25.8517 97.5255 21.9678 101.762 21.8069C111.808 21.4253 121.862 22.8219 131.457 25.9526C141.052 29.0833 149.996 33.8854 157.883 40.1181C161.21 42.7467 161.32 47.6363 158.403 50.7131C155.486 53.7898 150.649 53.8807 147.272 51.3183C141.075 46.6176 134.123 42.9722 126.695 40.5485C119.267 38.1249 111.503 36.9686 103.726 37.1103C99.4871 37.1875 95.6351 34.2617 95.094 30.0567Z" fill="url(#paint3_linear)"/>
<path opacity="0.05" d="M210 107.041C210 165.031 162.99 212.041 105 212.041C47.0101 212.041 0 165.031 0 107.041C0 49.0513 47.0101 2.04124 105 2.04124C162.99 2.04124 210 49.0513 210 107.041ZM17.85 107.041C17.85 155.173 56.8684 194.191 105 194.191C153.132 194.191 192.15 155.173 192.15 107.041C192.15 58.9096 153.132 19.8912 105 19.8912C56.8684 19.8912 17.85 58.9096 17.85 107.041Z" fill="#4527A0"/>
<path d="M95.1658 11.4709C94.6613 6.56763 98.2303 2.14381 103.159 2.05735C118.757 1.78372 134.261 4.98971 148.527 11.4879C162.792 17.9862 175.386 27.5794 185.417 39.528C188.587 43.3032 187.592 48.8994 183.561 51.7368C179.53 54.5742 173.995 53.5712 170.761 49.8518C162.602 40.4696 152.505 32.9148 141.127 27.732C129.749 22.5492 117.423 19.8896 104.989 19.8912C100.06 19.8918 95.6704 16.3741 95.1658 11.4709Z" fill="url(#paint4_linear)"/>
<path d="M105.567 13.9588H104.571V6.27713H101.858V5.39236H108.28V6.27713H105.567V13.9588ZM113.678 13.9588L113.484 13.0447H113.437C113.117 13.4471 112.797 13.7205 112.476 13.865C112.16 14.0056 111.764 14.076 111.287 14.076C110.65 14.076 110.15 13.9119 109.787 13.5838C109.428 13.2556 109.248 12.7888 109.248 12.1834C109.248 10.8865 110.285 10.2068 112.359 10.1443L113.449 10.1092V9.71072C113.449 9.20682 113.34 8.83572 113.121 8.59744C112.906 8.35526 112.56 8.23416 112.084 8.23416C111.549 8.23416 110.943 8.39822 110.267 8.72635L109.969 7.98221C110.285 7.81033 110.631 7.67557 111.006 7.57791C111.385 7.48026 111.764 7.43143 112.142 7.43143C112.908 7.43143 113.474 7.60135 113.842 7.94119C114.213 8.28104 114.398 8.82596 114.398 9.57596V13.9588H113.678ZM111.48 13.2732C112.086 13.2732 112.56 13.1072 112.904 12.7752C113.252 12.4431 113.426 11.9783 113.426 11.3806V10.8006L112.453 10.8416C111.68 10.8689 111.121 10.99 110.777 11.2049C110.437 11.4158 110.267 11.7459 110.267 12.1951C110.267 12.5467 110.373 12.8142 110.584 12.9978C110.799 13.1814 111.098 13.2732 111.48 13.2732Z" fill="#FCFCFC"/>
<path d="M105.567 32.3608H104.571V24.6792H101.858V23.7944H108.28V24.6792H105.567V32.3608ZM110.701 32.3608H109.728V25.939H110.701V32.3608ZM109.646 24.1987C109.646 23.9761 109.701 23.814 109.811 23.7124C109.92 23.6069 110.057 23.5542 110.221 23.5542C110.377 23.5542 110.512 23.6069 110.625 23.7124C110.738 23.8179 110.795 23.98 110.795 24.1987C110.795 24.4175 110.738 24.5815 110.625 24.6909C110.512 24.7964 110.377 24.8491 110.221 24.8491C110.057 24.8491 109.92 24.7964 109.811 24.6909C109.701 24.5815 109.646 24.4175 109.646 24.1987Z" fill="#FCFCFC"/>
<path d="M106.721 50.7629L103.815 43.1692H103.768C103.823 43.7707 103.85 44.4856 103.85 45.3137V50.7629H102.93V42.1965H104.43L107.143 49.2629H107.19L109.927 42.1965H111.415V50.7629H110.419V45.2434C110.419 44.6106 110.446 43.9231 110.501 43.1809H110.454L107.524 50.7629H106.721Z" fill="#FCFCFC"/>
<path d="M109.768 63.7173C109.768 65.1313 109.384 66.2133 108.614 66.9633C107.848 67.7094 106.745 68.0825 105.303 68.0825H102.93V59.5161H105.555C106.887 59.5161 107.923 59.8852 108.661 60.6235C109.399 61.3618 109.768 62.393 109.768 63.7173ZM108.714 63.7524C108.714 62.6352 108.432 61.7934 107.87 61.227C107.311 60.6606 106.479 60.3774 105.374 60.3774H103.927V67.2212H105.139C106.327 67.2212 107.22 66.9301 107.817 66.3481C108.415 65.7622 108.714 64.8969 108.714 63.7524Z" fill="#FCFCFC"/>
<path d="M106.598 77.6032C105.657 77.6032 104.913 77.9177 104.366 78.5466C103.823 79.1716 103.552 80.029 103.552 81.1189C103.552 82.24 103.813 83.1071 104.337 83.7204C104.864 84.3298 105.614 84.6345 106.587 84.6345C107.184 84.6345 107.866 84.5271 108.632 84.3122V85.1853C108.038 85.4079 107.305 85.5193 106.434 85.5193C105.173 85.5193 104.198 85.1364 103.511 84.3708C102.827 83.6052 102.485 82.5173 102.485 81.1071C102.485 80.2243 102.649 79.4509 102.977 78.7868C103.309 78.1228 103.786 77.6111 104.407 77.2517C105.032 76.8923 105.766 76.7126 106.61 76.7126C107.509 76.7126 108.294 76.8767 108.966 77.2048L108.544 78.0603C107.895 77.7556 107.247 77.6032 106.598 77.6032Z" fill="#FCFCFC"/>
<defs>
<linearGradient id="paint0_linear" x1="105" y1="107" x2="105" y2="140.083" gradientUnits="userSpaceOnUse">
<stop stop-color="#E1D7FF"/>
<stop offset="1" stop-color="#99CB60"/>
</linearGradient>
<linearGradient id="paint1_linear" x1="105" y1="56.8643" x2="105" y2="157.218" gradientUnits="userSpaceOnUse">
<stop stop-color="#CEBCFF"/>
<stop offset="1" stop-color="#F29F9B"/>
</linearGradient>
<linearGradient id="paint2_linear" x1="105" y1="39.2094" x2="105" y2="174.873" gradientUnits="userSpaceOnUse">
<stop offset="0.328125" stop-color="#A787FF"/>
<stop offset="1" stop-color="#CC8095"/>
</linearGradient>
<linearGradient id="paint3_linear" x1="105" y1="21.7454" x2="105" y2="192.337" gradientUnits="userSpaceOnUse">
<stop stop-color="#E95E83"/>
<stop offset="1" stop-color="#D638D9"/>
</linearGradient>
<linearGradient id="paint4_linear" x1="105" y1="2.04124" x2="105" y2="212.041" gradientUnits="userSpaceOnUse">
<stop offset="0.333333" stop-color="#E02C5C"/>
<stop offset="1" stop-color="#AE2146"/>
</linearGradient>
</defs>
</svg>
