<svg width="29" height="29" viewBox="0 0 29 29" fill="none" xmlns="http://www.w3.org/2000/svg">
<path d="M27.0667 14.184C27.0667 14.5479 27.0537 14.9119 27.0245 15.2758C27.0115 15.4416 26.9953 15.604 26.9758 15.7698C26.9693 15.8153 26.966 15.8575 26.9595 15.903C26.94 16.059 26.9823 15.7503 26.9595 15.9062C26.9465 16.0005 26.9303 16.098 26.9173 16.1922C26.8068 16.8811 26.6411 17.5603 26.4233 18.2232C26.3193 18.5384 26.2056 18.8536 26.0789 19.1591C26.0594 19.2078 26.0464 19.3215 26.0789 19.1623C26.0724 19.2013 26.0431 19.2468 26.0269 19.2825C25.9976 19.3475 25.9684 19.4125 25.9391 19.4808C25.8612 19.6497 25.7799 19.8187 25.6954 19.9844C25.39 20.5824 25.0423 21.1575 24.6523 21.7035C24.5678 21.8237 24.4833 21.9829 24.3729 22.0804C24.4931 21.9764 24.4021 22.0414 24.3696 22.0837C24.3436 22.1161 24.3176 22.1519 24.2916 22.1844C24.2396 22.2494 24.1844 22.3176 24.1291 22.3826C23.9114 22.6458 23.684 22.8993 23.4467 23.143C23.2193 23.377 22.9853 23.6044 22.7416 23.8222C22.6214 23.9294 22.4946 24.0366 22.3711 24.1406C22.3094 24.1894 22.2509 24.2414 22.1892 24.2901C22.1567 24.3161 22.1209 24.3421 22.0884 24.3681C22.0657 24.3843 22.0429 24.4038 22.0202 24.4201C22.0949 24.3616 22.1047 24.3551 22.0494 24.3973C21.5133 24.8003 20.9543 25.1707 20.3662 25.4924C20.077 25.6517 19.7812 25.7979 19.4823 25.9376C19.4043 25.9734 19.3263 26.0091 19.2451 26.0416C19.2061 26.0579 19.0891 26.1294 19.2418 26.0449C19.2061 26.0644 19.1606 26.0774 19.1216 26.0936C18.9624 26.1586 18.7999 26.2203 18.6374 26.2821C17.9907 26.516 17.3278 26.7013 16.6552 26.8345C16.4959 26.867 16.3367 26.8962 16.1742 26.919C16.0865 26.932 15.9988 26.945 15.911 26.958C15.755 26.9807 16.0638 26.9385 15.9078 26.958C15.8623 26.9645 15.82 26.9677 15.7745 26.9742C15.4138 27.0165 15.0531 27.0425 14.6924 27.0555C13.9808 27.0815 13.2659 27.0522 12.5607 26.9677C12.5217 26.9645 12.4665 26.9645 12.4275 26.9515C12.5835 27.0067 12.4795 26.958 12.4242 26.9515C12.3495 26.9417 12.278 26.9287 12.2033 26.919C12.0213 26.8897 11.8393 26.8573 11.6574 26.8183C11.3194 26.75 10.9847 26.6688 10.6532 26.5745C10.3185 26.4803 9.98708 26.3698 9.65888 26.2496C9.5094 26.1943 9.36317 26.1359 9.21369 26.0774C9.16169 26.0546 9.05771 26.0481 9.21044 26.0774C9.18769 26.0741 9.1552 26.0546 9.13245 26.0416C9.04146 26.0026 8.94722 25.9604 8.85624 25.9181C8.24532 25.6354 7.65715 25.3105 7.09498 24.94C6.96499 24.8555 6.83501 24.7645 6.70828 24.6735C6.64004 24.6248 6.56855 24.5728 6.50031 24.5241C6.46456 24.4981 6.43207 24.4721 6.39632 24.4461C6.36058 24.4201 6.1981 24.3258 6.35733 24.4168C6.22735 24.3388 6.10711 24.2186 5.99338 24.1244C5.86339 24.0139 5.73341 23.9034 5.60668 23.7897C5.1095 23.3445 4.64806 22.8603 4.22237 22.3469C4.16713 22.2819 4.11513 22.2136 4.05989 22.1486C4.0339 22.1161 4.0079 22.0804 3.9819 22.0479C3.89091 21.9342 4.04689 22.1389 3.99165 22.0609C3.88767 21.9179 3.77718 21.7749 3.67644 21.632C3.48797 21.3623 3.30924 21.0893 3.14027 20.8066C2.96479 20.5109 2.79906 20.2119 2.64309 19.9032C2.5716 19.7635 2.50335 19.6205 2.43836 19.4743C2.40262 19.3963 2.36687 19.3183 2.33438 19.237C2.32788 19.224 2.26939 19.0941 2.31488 19.1948C2.36037 19.2955 2.28888 19.1298 2.28238 19.1136C2.02567 18.4799 1.81445 17.8267 1.65522 17.1638C1.57398 16.8194 1.50574 16.4717 1.4505 16.1207C1.4375 16.0395 1.42775 15.9582 1.41475 15.877C1.40175 15.7795 1.43425 16.046 1.418 15.8932C1.4115 15.8478 1.40825 15.8055 1.40175 15.76C1.38226 15.5813 1.36276 15.4026 1.34976 15.2238C1.29452 14.5122 1.29777 13.7973 1.35301 13.0856C1.36601 12.9069 1.38551 12.7282 1.40825 12.5495C1.4115 12.5105 1.4115 12.452 1.4245 12.4162C1.42125 12.4292 1.40175 12.5755 1.418 12.4552C1.43425 12.3512 1.44725 12.2505 1.4635 12.1465C1.51874 11.8053 1.59023 11.4641 1.67147 11.1294C1.83395 10.4567 2.05492 9.80358 2.31488 9.16342C2.33438 9.11468 2.32463 9.07568 2.29863 9.19916C2.30513 9.16017 2.33438 9.11468 2.35063 9.07893C2.38637 9.00094 2.42212 8.9197 2.45786 8.84171C2.52935 8.68573 2.60409 8.52976 2.68208 8.37703C2.83806 8.07157 3.00379 7.77261 3.18251 7.4769C3.35149 7.19744 3.53346 6.92447 3.72519 6.65476C3.80968 6.53778 3.89416 6.3688 4.00465 6.27781C3.88442 6.37855 3.97215 6.31681 4.0079 6.27456C4.0339 6.24207 4.05989 6.20632 4.08589 6.17383C4.14763 6.09584 4.21262 6.01785 4.27436 5.94311C4.7033 5.43293 5.16799 4.95199 5.66842 4.51006C5.78541 4.40607 5.90239 4.30533 6.02262 4.2046C6.08761 4.14935 6.15585 4.09736 6.22085 4.04212C6.24359 4.02587 6.26634 4.00637 6.28909 3.99013C6.31183 3.97388 6.33458 3.95438 6.35733 3.93813C6.28259 3.99662 6.27284 4.00312 6.32808 3.96088C6.60104 3.75616 6.88051 3.55793 7.16647 3.37271C7.73189 3.00551 8.32331 2.6838 8.93423 2.40434C8.99922 2.3751 9.06421 2.34585 9.13245 2.3166C9.17144 2.30036 9.28843 2.22887 9.1357 2.31335C9.17144 2.29386 9.21694 2.28086 9.25593 2.26461C9.41516 2.19962 9.57764 2.13788 9.74012 2.07614C10.0683 1.9559 10.3998 1.85192 10.7377 1.75768C11.0627 1.66669 11.3909 1.5887 11.7223 1.52371C11.8978 1.48797 12.07 1.45872 12.2455 1.42948C12.3203 1.41648 12.3918 1.40673 12.4665 1.39698C12.6225 1.37423 12.3138 1.41648 12.4697 1.39698C12.5282 1.39048 12.59 1.38073 12.6485 1.37423C13.3569 1.29299 14.0718 1.27025 14.7834 1.29949C15.1279 1.31574 15.4756 1.34174 15.82 1.38398C15.859 1.38723 15.9143 1.38723 15.9533 1.40023C15.7973 1.34499 15.9013 1.39373 15.9565 1.40023C16.0443 1.41323 16.132 1.42623 16.2197 1.43922C16.3952 1.46847 16.5707 1.50097 16.7429 1.53671C17.4156 1.67319 18.0752 1.86167 18.7186 2.10213C18.8681 2.15738 19.0143 2.21587 19.1638 2.27436C19.2126 2.29386 19.3263 2.30686 19.1671 2.27436C19.2061 2.28086 19.2516 2.31011 19.2873 2.32635C19.3718 2.36535 19.4595 2.40109 19.544 2.44009C19.8495 2.58307 20.1484 2.7358 20.4442 2.89827C20.7431 3.064 21.0356 3.24273 21.3215 3.4312C21.4515 3.51894 21.5815 3.60668 21.7082 3.69767C21.7732 3.74316 21.835 3.78865 21.8967 3.83415C21.9259 3.85689 21.9552 3.87639 21.9812 3.89914C22.0169 3.92513 22.1794 4.02262 22.0202 3.92838C22.1502 4.00637 22.2672 4.12336 22.3841 4.22084C22.5271 4.33783 22.6668 4.46131 22.8033 4.58479C23.047 4.80252 23.281 5.02998 23.5052 5.2672C23.7425 5.51417 23.9667 5.76763 24.1844 6.03085C24.2299 6.08609 24.2754 6.14133 24.3176 6.19657C24.3436 6.22907 24.3696 6.26481 24.3956 6.29731C24.4898 6.41429 24.3079 6.18033 24.3989 6.30056C24.5028 6.43704 24.6036 6.57352 24.7011 6.71325C25.0878 7.26243 25.4322 7.84085 25.7344 8.43877C25.8124 8.5915 25.8872 8.74748 25.9554 8.9067C25.9846 8.9717 26.0139 9.03669 26.0431 9.10493C26.0594 9.14392 26.1309 9.26091 26.0464 9.10818C26.0724 9.15692 26.0919 9.21541 26.1114 9.26741C26.2349 9.57611 26.3486 9.88807 26.4526 10.2065C26.6638 10.8629 26.823 11.5388 26.9303 12.218C26.9433 12.3025 26.9693 12.3967 26.9693 12.4845C26.966 12.3025 26.9628 12.4455 26.9693 12.4877C26.9758 12.5332 26.979 12.5755 26.9855 12.6209C27.005 12.7834 27.0213 12.9492 27.031 13.1149C27.0537 13.4853 27.0667 13.8363 27.0667 14.184C27.0667 14.5252 27.3657 14.8501 27.7167 14.8339C28.0676 14.8176 28.3666 14.5479 28.3666 14.184C28.3633 11.2756 27.4632 8.38028 25.7702 6.0081C24.0902 3.64892 21.7375 1.84542 19.0176 0.847805C16.2457 -0.169306 13.1359 -0.270042 10.299 0.539097C7.56616 1.31574 5.07375 2.93727 3.267 5.13397C1.39526 7.40866 0.26441 10.2 0.0401908 13.1376C-0.184029 16.059 0.530874 19.0388 2.05492 21.541C3.52696 23.9586 5.73016 25.9344 8.31356 27.0977C11.0464 28.3261 14.1043 28.6738 17.0451 28.0823C19.8397 27.5169 22.4491 26.0611 24.4216 24.0009C26.4006 21.9342 27.7524 19.263 28.1878 16.4294C28.3016 15.6853 28.3666 14.9379 28.3698 14.184C28.3698 13.8428 28.0709 13.5178 27.7199 13.5341C27.3657 13.5503 27.07 13.82 27.0667 14.184Z" fill="#1C1C34"/>
<path d="M13.4933 5.06573C13.4933 5.90737 13.4933 6.75225 13.4933 7.59389C13.4933 9.10818 13.4933 10.6225 13.4933 12.1368C13.4933 12.6697 13.4933 13.2059 13.4933 13.7388C13.4933 14.0605 13.4446 14.4245 13.7143 14.6617C14.0132 14.9281 14.3414 15.1686 14.6534 15.4188C15.2221 15.877 15.794 16.3384 16.3627 16.7966C17.2725 17.531 18.1824 18.2654 19.0955 18.9966C19.1118 19.0096 19.128 19.0226 19.1443 19.0356C19.4075 19.25 19.8072 19.3118 20.0639 19.0356C20.2816 18.7984 20.3466 18.3434 20.0639 18.1159C19.4465 17.6188 18.8323 17.1248 18.2149 16.6277C17.2335 15.838 16.2522 15.0484 15.2741 14.2587C15.0498 14.0767 14.8256 13.898 14.6014 13.7161C14.6664 13.8688 14.7281 14.0215 14.7931 14.1742C14.7931 13.1441 14.7931 12.1173 14.7931 11.0872C14.7931 9.45263 14.7931 7.82136 14.7931 6.18683C14.7931 5.80988 14.7931 5.43618 14.7931 5.05923C14.7931 4.71803 14.4942 4.39307 14.1432 4.40932C13.789 4.43207 13.4933 4.70178 13.4933 5.06573Z" fill="#1C1C34"/>
</svg>
