<svg width="29" height="28" viewBox="0 0 29 28" fill="none" xmlns="http://www.w3.org/2000/svg">
<path d="M28.6312 25.7227C27.6896 25.189 27.0248 24.2973 26.7769 23.2509C27.7159 21.7546 28.2102 20.0315 28.2102 18.2468C28.2102 13.0382 23.9733 8.80128 18.7647 8.80128C13.5561 8.80128 9.31915 13.0382 9.31915 18.2468C9.31915 23.4554 13.5561 27.6924 18.7647 27.6924C20.3265 27.6924 21.8542 27.3094 23.2167 26.579C24.0362 27.2924 25.0945 27.6924 26.2013 27.6924C27.0799 27.6924 27.9322 27.4406 28.6679 26.9659C28.8816 26.8282 29.0075 26.5882 28.9996 26.3351C28.9918 26.0794 28.8528 25.8473 28.6312 25.7227ZM23.8815 25.193C23.7386 25.0303 23.5379 24.9451 23.3347 24.9451C23.2036 24.9451 23.0711 24.9805 22.9531 25.054C21.6995 25.829 20.2504 26.2381 18.7647 26.2381C14.3573 26.2381 10.7721 22.6529 10.7721 18.2455C10.7721 13.8381 14.3573 10.2529 18.7647 10.2529C23.1721 10.2529 26.7573 13.8381 26.7573 18.2455C26.7573 19.844 26.2891 21.3835 25.404 22.6962C25.3004 22.8496 25.2597 23.0384 25.2899 23.2207C25.4787 24.3629 26.0216 25.3897 26.8294 26.1738C25.762 26.3928 24.6027 26.0152 23.8815 25.193Z" fill="#1C1C34"/>
<path d="M5.34018 15.8549C4.71467 16.5657 3.72986 16.9053 2.80799 16.7558C3.51349 16.0398 3.98688 15.118 4.15473 14.0978C4.18489 13.9142 4.14424 13.728 4.04065 13.5732C3.2368 12.3838 2.81193 10.9846 2.81193 9.52776C2.81193 5.52163 6.07059 2.26166 10.078 2.26166C13.338 2.26166 16.2164 4.4529 17.0792 7.59092L18.4811 7.20538C17.4451 3.43924 13.9897 0.808701 10.078 0.808701C5.27068 0.808701 1.35897 4.72041 1.35897 9.52776C1.35897 11.1709 1.81007 12.7549 2.66637 14.1279C2.43951 15.059 1.84285 15.851 1.00098 16.3283C0.780674 16.4529 0.641672 16.6837 0.632493 16.9381C0.624625 17.1912 0.749201 17.4312 0.961637 17.5689C1.64091 18.0121 2.43558 18.2468 3.26303 18.2468C4.27407 18.2468 5.24445 17.8849 6.0024 17.2384C6.5453 17.5243 7.12228 17.7538 7.72418 17.9216L8.11627 16.5224C7.45667 16.3375 6.8351 16.0674 6.26729 15.7173C5.96437 15.531 5.5736 15.5901 5.34018 15.8549Z" fill="#1C1C34"/>
</svg>
