<svg width="183" height="338" viewBox="0 0 183 338" fill="none" xmlns="http://www.w3.org/2000/svg">
<path d="M81.31 315.767C81.31 315.767 81.31 318.764 81.0324 320.901C81.0634 321.161 81.0325 321.425 80.9422 321.671C80.8519 321.917 80.7046 322.139 80.5126 322.317C80.3205 322.496 80.089 322.626 79.8368 322.699C79.5847 322.771 79.3191 322.782 79.0617 322.732H72.1501C69.3711 322.198 66.5005 322.399 63.823 323.315L62.9903 323.815C62.6808 324.075 62.432 324.4 62.2613 324.767C62.0907 325.134 62.0022 325.533 62.0022 325.938C62.0022 326.342 62.0907 326.742 62.2613 327.108C62.432 327.475 62.6808 327.8 62.9903 328.061C67.3759 331.668 71.3174 331.779 76.2582 333.333C80.1719 334.582 83.6416 336.913 86.5283 337.246C89.4151 337.579 92.4128 336.414 92.4961 333.389C92.4961 329.864 93.2455 323.981 93.6896 318.348L87.8884 314.796L81.31 315.767Z" fill="#1C1C34"/>
<path d="M121.003 72.3361C121.722 68.2553 122.148 64.1285 122.28 59.987L138.934 54.9086C138.017 61.0426 138.395 67.3007 140.044 73.2796L121.003 72.3361Z" fill="#A3A3FF"/>
<path d="M151.508 312.77C151.869 314.268 152.202 315.767 152.535 317.265C152.593 317.512 152.591 317.768 152.531 318.014C152.471 318.26 152.353 318.488 152.188 318.68C152.024 318.872 151.816 319.022 151.582 319.119C151.348 319.215 151.094 319.255 150.842 319.236H145.291C142.553 319.029 139.808 319.536 137.324 320.706L136.575 321.289C136.287 321.555 136.064 321.883 135.921 322.248C135.779 322.613 135.722 323.006 135.754 323.396C135.786 323.787 135.907 324.165 136.107 324.502C136.306 324.839 136.581 325.126 136.908 325.341C141.516 328.366 145.457 328.116 150.259 329.032C154.145 329.809 157.726 331.807 160.529 331.807C163.333 331.807 166.081 330.364 165.886 327.45C165.609 324.064 165.22 319.125 164.637 313.575L157.698 311.771L151.508 312.77Z" fill="#1C1C34"/>
<path d="M100.74 183.007C100.241 185.032 99.6577 187.031 99.0193 189.029C92.885 208.204 83.6418 237.398 79.8669 251.801C78.9698 255.334 78.6326 258.986 78.8676 262.624C79.5338 272.531 80.422 300.143 79.7836 318.681C79.7979 319.197 79.9562 319.7 80.2406 320.131C80.5251 320.562 80.9244 320.906 81.3935 321.123C85.1196 322.378 89.0374 322.97 92.9682 322.871C93.6773 322.881 94.3683 322.647 94.9246 322.207C95.4808 321.767 95.8682 321.149 96.0215 320.457C99.9744 301.813 101.569 282.747 100.768 263.706C100.63 260.975 101.244 258.258 102.544 255.853C111.843 238.814 129.968 208.121 129.968 208.121L132.494 250.636C132.744 254.696 133.519 258.707 134.798 262.568C138.046 272.253 144.707 294.898 150.12 314.851C150.276 315.433 150.581 315.964 151.004 316.392C151.427 316.82 151.955 317.131 152.535 317.293C156.256 318.359 160.179 318.512 163.971 317.737C164.727 317.614 165.407 317.206 165.872 316.597C166.336 315.988 166.55 315.224 166.469 314.463C164.57 295.559 161.455 276.798 157.143 258.295C156.547 255.994 156.267 253.623 156.31 251.246C156.782 233.069 158.503 214.032 159.863 201.461C160.602 194.497 160.209 187.459 158.697 180.62L137.435 180.01L118.533 180.703H111.232L100.74 183.007Z" fill="#E02C5C"/>
<path d="M77.3123 71.5869C69.4015 63.2617 60.658 53.6044 53.8853 44.7796C53.0725 43.739 52.6172 42.464 52.5872 41.1441C52.5572 39.8241 52.9541 38.5297 53.7188 37.4533C59.2702 29.7109 72.0662 19.776 78.4781 15.0584C81.0841 13.1312 83.9918 11.6496 87.0828 10.6737C96.8341 7.53498 107.084 6.23637 117.31 6.84414C118.726 7.06614 120.586 8.06518 117.449 9.03646C115.756 9.53597 109.733 11.5063 109.733 11.5063C107.868 12.1547 106.117 13.091 104.542 14.2814C98.9906 18.3607 89.1368 17.7502 89.1368 17.7502C81.9477 23.5224 77.6731 31.4592 74.5643 36.0658C73.8701 37.0765 73.5438 38.2947 73.6398 39.5169C73.7358 40.7392 74.2483 41.8915 75.0917 42.7815C78.256 46.0839 82.4196 49.9967 86.6109 53.8819" fill="#A3A3FF"/>
<path d="M171.771 187.114C171.835 187.525 171.806 187.946 171.686 188.344C171.566 188.743 171.358 189.11 171.077 189.417C169.633 191.137 168.301 194.357 168.523 201.849C168.523 201.849 168.884 202.626 170.05 202.071C171.215 201.516 170.66 197.742 172.02 198.242C172.659 198.603 172.992 201.988 173.214 204.541C173.214 206.068 173.491 208.537 174.99 208.815C176.487 208.519 177.869 207.803 178.975 206.752C180.081 205.7 180.865 204.356 181.236 202.876C182.627 198.1 182.403 192.998 180.597 188.362C180.32 187.655 180.179 186.902 180.181 186.142L171.771 187.114Z" fill="#A3A3FF"/>
<path d="M171.798 187.474C165.747 153.063 158.142 129.78 153.284 119.318L169.384 110.604C174.435 126.755 179.848 161.111 180.126 186.337C177.456 187.277 174.623 187.664 171.798 187.474Z" fill="#A3A3FF"/>
<path d="M150.897 117.126C151.592 119.134 152.446 121.082 153.451 122.954C153.488 123.051 153.544 123.141 153.616 123.216C153.688 123.292 153.774 123.352 153.87 123.394C153.966 123.435 154.069 123.457 154.174 123.458C154.278 123.458 154.382 123.438 154.478 123.398C160.961 120.873 167.084 117.505 172.687 113.38C172.991 113.132 173.211 112.796 173.315 112.418C173.419 112.04 173.404 111.639 173.269 111.271C172.631 109.411 171.438 105.942 170.882 104.499C167.524 95.9799 163.915 90.3187 161.5 85.0738C159.57 81.2678 156.697 78.0197 153.155 75.6392C149.613 73.2588 145.519 71.8254 141.266 71.4759C131.912 71.0419 122.541 71.1716 113.203 71.8644C109.706 72.1186 106.248 70.9928 103.571 68.7285C99.6021 65.4261 93.329 60.0425 87.1947 54.4923C82.4793 59.6829 79.0306 65.895 77.1189 72.6414C76.9892 73.2098 76.9971 73.8009 77.142 74.3656C77.2868 74.9303 77.5644 75.4523 77.9516 75.8882C83.9193 82.5762 92.6906 90.6794 96.6043 94.4536C97.72 95.5299 98.6015 96.8248 99.1937 98.2573C99.786 99.6898 100.076 101.229 100.046 102.779C99.8825 119.892 100.754 136.999 102.655 154.007C103.738 163.47 101.878 174.654 100.907 182.452C100.887 182.644 100.93 182.837 101.031 183.003C101.131 183.168 101.282 183.296 101.462 183.367C126.998 192.997 153.312 183.007 158.031 181.036C158.236 180.95 158.405 180.795 158.506 180.597C158.608 180.398 158.636 180.171 158.586 179.954C158.197 178.289 157.753 176.679 157.254 175.042C151.699 156.27 149.546 136.656 150.897 117.126Z" fill="#1C1C34"/>
<path d="M109.123 21.3854C109.123 21.3854 105.07 27.9346 106.347 31.1259C107.624 34.3173 109.816 34.7058 109.816 34.7058L113.342 34.1785L116.811 24.4657L109.123 21.3854Z" fill="white"/>
<path d="M110.011 35.0665C110.843 35.1325 111.68 35.0479 112.482 34.8168L111.926 32.8187C111.26 33.0698 110.537 33.1274 109.84 32.985C109.142 32.8426 108.499 32.506 107.985 32.014C107.503 31.3373 107.202 30.549 107.109 29.7235C107.017 28.898 107.137 28.0626 107.458 27.2963L110.233 20.8304L108.29 20.0533L105.681 26.5193C105.218 27.6212 105.049 28.8243 105.19 30.0111C105.331 31.1979 105.778 32.3278 106.486 33.2905C106.924 33.8079 107.462 34.2319 108.068 34.537C108.674 34.8421 109.334 35.0222 110.011 35.0665Z" fill="#E02C5C"/>
<path d="M116.456 58.5091C107.54 52.3483 107.562 36.8673 116.505 23.9314C125.447 10.9955 139.924 5.50316 148.84 11.664C157.756 17.8248 157.735 33.3057 148.792 46.2416C139.85 59.1775 125.372 64.6699 116.456 58.5091Z" fill="#A3A3FF"/>
<path d="M123.279 35.7606C123.279 35.7606 131.023 36.6763 127.276 48.4705C127.016 49.3535 126.944 50.2813 127.065 51.1939C127.186 52.1065 127.497 52.9835 127.978 53.7683C128.46 54.553 129.1 55.2279 129.859 55.7495C130.618 56.271 131.478 56.6274 132.383 56.7957C134.445 57.0987 136.539 57.0987 138.601 56.7957C143.455 52.8418 147.934 48.4477 151.98 43.6696C155.644 38.5911 163.277 28.1846 154.589 15.9187C146.706 4.81836 129.025 1.516 118.727 7.39919C107.624 13.7541 115.618 17.2785 116.312 17.334C118.046 17.4894 119.648 18.3228 120.771 19.6532C121.894 20.9835 122.446 22.7031 122.307 24.4382L118.727 32.7635L123.279 35.7606Z" fill="url(#paint0_linear)"/>
<path d="M138.601 57.0175C136.539 57.3205 134.444 57.3205 132.383 57.0175C131.478 56.8492 130.618 56.4927 129.859 55.9712C129.1 55.4497 128.46 54.7747 127.978 53.99C127.497 53.2053 127.185 52.3283 127.064 51.4157C126.943 50.5031 127.015 49.5753 127.276 48.6922C131.023 36.8981 123.279 35.9823 123.279 35.9823L118.727 33.2072L122.307 24.882C122.446 23.1469 121.894 21.4272 120.771 20.0969C119.648 18.7666 118.046 17.9331 116.312 17.7777C115.895 17.7777 112.87 16.4457 112.925 14.0036C124.445 10.5625 133.549 8.06492 144.763 14.9194C154.839 21.0801 155.644 33.4847 154.783 40.0617C153.812 41.699 152.785 43.1143 152.007 44.2243C147.938 48.8881 143.45 53.1703 138.601 57.0175Z" fill="#292988"/>
<path d="M134.382 38.5634C134.715 40.2285 136.575 38.9519 136.575 38.9519L135.548 32.9022C135.452 32.3411 135.22 31.8122 134.871 31.3621C134.522 30.9121 134.069 30.5546 133.549 30.3214L108.568 19.0823C107.569 18.6383 106.736 20.4143 107.846 20.9693L131.689 31.7644C132.209 31.9977 132.663 32.3551 133.011 32.8052C133.36 33.2553 133.592 33.7842 133.688 34.3453C133.688 34.3453 134.215 37.2314 134.382 38.5634Z" fill="#E02C5C"/>
<path d="M123.89 30.2382C122.974 31.7989 122.256 33.4676 121.752 35.2056C121.475 37.4534 123.085 37.9806 124.528 38.8964C126.86 40.173 130.302 38.3692 132.217 34.8726C134.132 31.376 133.827 27.5186 131.495 26.242C129.164 24.9655 125.805 26.7416 123.89 30.2382Z" fill="#A3A3FF"/>
<path d="M122.225 60.0424C123.105 56.5064 123.368 52.845 123.002 49.2195C122.197 38.6742 121.808 34.4006 121.808 34.4006L119.032 32.569C119.032 32.569 115.48 39.5623 110.983 39.368C105.265 39.146 103.711 47.4157 108.207 54.7697C112.176 61.0691 121.669 62.5399 122.225 60.0424Z" fill="#292988"/>
<path d="M49.2478 288.879C48.5979 292.412 42.8905 295.181 35.9681 295.181C29.0457 295.181 23.2817 292.355 22.6601 288.822L11.1039 246.031L16.3028 239.22L45.0944 236.393L49.3326 240.633L53.486 244.618L56.4528 246.088L49.2478 288.879Z" fill="#A3A3FF"/>
<path d="M33.8487 258.015C21.287 258.015 11.1037 252.675 11.1037 246.088C11.1037 239.5 21.287 234.16 33.8487 234.16C46.4104 234.16 56.5938 239.5 56.5938 246.088C56.5938 252.675 46.4104 258.015 33.8487 258.015Z" fill="#8C8CFF"/>
<path d="M33.8488 254.623C23.0504 254.623 14.2965 250.536 14.2965 245.494C14.2965 240.452 23.0504 236.365 33.8488 236.365C44.6472 236.365 53.401 240.452 53.401 245.494C53.401 250.536 44.6472 254.623 33.8488 254.623Z" fill="url(#paint1_linear)"/>
<path d="M38.7649 244.053C38.7649 244.053 48.4563 182.099 17.3761 153.948C29.78 199.17 28.5085 246.54 28.5085 246.54L38.7649 244.053Z" fill="#4747DC"/>
<path opacity="0.5" d="M24.4966 176.022C26.4159 176.296 28.3697 175.875 30.0063 174.835C30.4634 174.512 30.9688 174.264 31.5038 174.1C31.1647 173.366 30.8539 172.631 30.4866 171.924C29.872 172.138 29.2843 172.423 28.7348 172.772C27.9738 173.339 27.0555 173.655 26.1071 173.676C25.132 173.81 24.1399 173.621 23.2816 173.139C22.7423 172.898 22.185 172.7 21.6146 172.546C21.8124 173.45 21.9819 174.383 22.1515 175.372H22.2928C22.9935 175.691 23.7353 175.909 24.4966 176.022Z" fill="#6464F8"/>
<path opacity="0.5" d="M26.5022 183.851C27.1688 183.927 27.8418 183.927 28.5083 183.851C30.0224 183.793 31.4862 183.292 32.7183 182.41C33.2593 182.053 33.8494 181.777 34.4701 181.59C34.1875 180.742 33.8767 179.894 33.5659 179.046C32.7546 179.29 31.9834 179.652 31.2773 180.121C30.4011 180.719 29.3806 181.071 28.3222 181.14C27.2637 181.21 26.206 180.994 25.259 180.516C24.5721 180.201 23.8517 179.964 23.1117 179.81C23.3001 180.789 23.4696 181.732 23.6203 182.636L24.1571 182.862C24.8846 183.308 25.6752 183.642 26.5022 183.851Z" fill="#6464F8"/>
<path opacity="0.5" d="M30.8815 190.437C31.949 190.428 32.9973 190.722 33.9047 191.285C34.9066 191.907 36.0371 192.294 37.2105 192.415C37.0128 191.454 36.7867 190.493 36.5606 189.589C36.0862 189.434 35.6311 189.226 35.2044 188.967C34.4956 188.55 33.7358 188.227 32.944 188.006C30.8009 187.522 28.5554 187.823 26.615 188.854C25.9819 189.231 25.2812 189.481 24.5524 189.589C24.6936 190.493 24.8067 191.398 24.9197 192.274C25.9147 192.122 26.8729 191.787 27.7452 191.285C28.6772 190.683 29.7734 190.387 30.8815 190.437Z" fill="#6464F8"/>
<path opacity="0.5" d="M32.8597 200.81C34.2429 200.79 35.6006 201.183 36.7589 201.94C37.4972 202.359 38.2728 202.71 39.0757 202.986C38.9062 201.61 38.7084 200.225 38.4824 198.831C37.5578 198.277 36.5588 197.858 35.5156 197.588C34.6574 197.368 33.7738 197.263 32.888 197.277C30.9079 197.196 28.9464 197.687 27.237 198.69L25.8808 199.312C25.8808 200.499 26.1633 201.686 26.2763 202.873C27.1769 202.616 28.0481 202.265 28.8758 201.827C30.0708 201.094 31.4595 200.739 32.8597 200.81Z" fill="#6464F8"/>
<path opacity="0.5" d="M31.3061 214.658C32.1721 214.821 33.0533 214.887 33.9338 214.856C35.9346 214.856 37.8943 214.288 39.5848 213.217L40.0369 212.963C40.0369 211.719 39.8956 210.475 39.7825 209.204C39.1098 209.464 38.4581 209.776 37.833 210.136C36.6753 210.901 35.3209 211.313 33.9338 211.323C32.5403 211.402 31.1544 211.068 29.9499 210.362C29.0592 209.875 28.1096 209.505 27.1245 209.26C27.1245 210.56 27.3505 211.804 27.4353 213.047L28.4524 213.528C29.3478 214.033 30.3079 214.413 31.3061 214.658Z" fill="#6464F8"/>
<path opacity="0.5" d="M34.2165 225.37C35.6016 225.391 36.9491 225.824 38.0874 226.614C38.7271 227 39.3982 227.33 40.0935 227.603C40.0935 226.36 40.0935 225.06 40.0935 223.703C39.9933 223.657 39.8986 223.6 39.811 223.533C38.9285 222.974 37.9793 222.527 36.9855 222.205C36.1247 221.992 35.244 221.868 34.3578 221.837C32.3915 221.714 30.4309 222.156 28.7068 223.109L28.0004 223.42C28.0004 224.72 28.1417 225.936 28.1982 227.123C28.9062 226.904 29.5958 226.63 30.2608 226.303C31.4602 225.613 32.8352 225.289 34.2165 225.37Z" fill="#6464F8"/>
<path opacity="0.5" d="M36.8718 233.397C36.023 233.172 35.1503 233.049 34.2724 233.03C32.3065 232.913 30.3477 233.354 28.6214 234.302H28.4519C28.4519 235.659 28.4519 236.93 28.4519 238.089C29.011 237.895 29.5582 237.669 30.0907 237.411C31.3051 236.749 32.6749 236.427 34.0567 236.476C35.4386 236.526 36.7817 236.946 37.9455 237.693L39.3582 238.457C39.3582 237.326 39.5842 236.026 39.669 234.613C38.7958 234.083 37.8548 233.674 36.8718 233.397Z" fill="#6464F8"/>
<path opacity="0.5" d="M23.7622 166.384C24.707 166.375 25.6328 166.65 26.4182 167.176C27.0574 167.544 27.741 167.829 28.4525 168.024C27.7461 166.808 27.0115 165.621 26.2487 164.434C26.0509 164.434 25.8531 164.265 25.5988 164.208C25.0136 164.079 24.4178 164.003 23.8188 163.982C22.52 163.939 21.233 164.241 20.0891 164.858C20.2869 165.678 20.4564 166.469 20.626 167.261L21.0781 167.063C21.8855 166.575 22.82 166.339 23.7622 166.384Z" fill="#6464F8"/>
<path d="M37.324 245.861C37.324 245.861 37.4935 191.087 68.2064 171.104C57.414 196.15 49.8928 222.482 45.8286 249.451L37.324 245.861Z" fill="#554FF0"/>
<path d="M59.137 189.165C58.613 189.16 58.0914 189.094 57.583 188.967C56.4393 188.731 55.3832 188.183 54.5315 187.384C54.1844 187.039 53.7836 186.753 53.3448 186.536L54.5315 184.784C55.0298 185.059 55.4945 185.391 55.916 185.773C56.4964 186.37 57.2459 186.775 58.0633 186.932C58.8464 187.169 59.6819 187.169 60.465 186.932C60.9539 186.795 61.4558 186.71 61.9625 186.678L61.1148 188.967C60.4684 189.127 59.8023 189.194 59.137 189.165Z" fill="#6464F8"/>
<path d="M56.3108 195.75C54.3902 195.716 52.5456 194.994 51.112 193.715C50.7066 193.328 50.2385 193.013 49.7275 192.783C50.0948 192.076 50.4621 191.37 50.8577 190.691C51.5204 191.011 52.1302 191.43 52.666 191.935C53.3389 192.581 54.1817 193.022 55.0959 193.207C56.0156 193.495 57.0016 193.495 57.9213 193.207C58.5535 193.008 59.209 192.894 59.8709 192.867L59.0233 195.355H58.5429C57.8204 195.588 57.0694 195.721 56.3108 195.75Z" fill="#6464F8"/>
<path d="M51.4231 200.809C50.4684 200.645 49.4864 200.763 48.5977 201.149C47.6473 201.531 46.6259 201.704 45.6027 201.657C45.9135 200.838 46.2243 200.046 46.5633 199.255C46.9884 199.185 47.405 199.072 47.8066 198.916C48.4714 198.634 49.1775 198.462 49.8974 198.407C50.4888 198.339 51.086 198.339 51.6774 198.407C52.9804 198.584 54.2108 199.111 55.2375 199.933C55.7281 200.348 56.2941 200.665 56.9045 200.866L56.2264 203.127C55.353 202.858 54.5382 202.426 53.8248 201.855C53.1381 201.288 52.3059 200.926 51.4231 200.809Z" fill="#6464F8"/>
<path d="M48.3999 209.288C47.2067 209.074 45.9767 209.222 44.8681 209.712C44.1729 209.978 43.4538 210.177 42.7207 210.306C43.0598 209.147 43.4271 207.96 43.7944 206.801C44.6947 206.428 45.6483 206.199 46.6199 206.123C47.3894 206.03 48.1673 206.03 48.9368 206.123C50.6396 206.322 52.2487 207.009 53.5705 208.101C53.9245 208.366 54.2924 208.611 54.6725 208.836L53.8248 211.86C53.0887 211.505 52.3885 211.079 51.734 210.589C50.7741 209.838 49.6146 209.386 48.3999 209.288Z" fill="#6464F8"/>
<path d="M47.8345 221.555C47.0665 221.577 46.2986 221.511 45.5459 221.357C43.8444 221.081 42.2566 220.326 40.9686 219.181L40.6013 218.898C40.8556 217.852 41.0816 216.778 41.3642 215.676C41.9054 216.01 42.4244 216.378 42.9182 216.778C43.8058 217.6 44.9167 218.141 46.111 218.333C47.3004 218.579 48.5354 218.481 49.671 218.05C50.5805 217.73 51.533 217.549 52.4965 217.513C52.2139 218.587 51.9314 219.661 51.6771 220.735C51.3596 220.793 51.0477 220.878 50.7447 220.99C49.8074 221.319 48.827 221.51 47.8345 221.555Z" fill="#6464F8"/>
<path d="M43.8505 230.401C42.6489 230.224 41.4215 230.401 40.3187 230.91C39.709 231.17 39.0748 231.369 38.4257 231.504C38.5669 230.43 38.7365 229.299 38.906 228.14H39.1885C40.0899 227.76 41.0416 227.513 42.014 227.406C42.7847 227.336 43.5601 227.336 44.3309 227.406C46.0426 227.578 47.6697 228.234 49.0212 229.299L49.5862 229.667C49.3602 230.769 49.1342 231.815 48.9082 232.832C48.3278 232.535 47.7705 232.195 47.2411 231.815C46.28 231.011 45.0977 230.518 43.8505 230.401Z" fill="#6464F8"/>
<path d="M40.4319 236.959C41.1925 236.875 41.9599 236.875 42.7205 236.959C44.4406 237.131 46.0765 237.788 47.4391 238.852C47.213 240.039 47.0152 241.113 46.8457 242.131C46.3654 241.848 45.9133 241.566 45.5177 241.283C44.5554 240.558 43.4189 240.101 42.2232 239.957C41.0275 239.813 39.815 239.988 38.7083 240.463L37.3804 240.915C37.3804 239.926 37.5216 238.796 37.6347 237.552C38.5327 237.217 39.4753 237.017 40.4319 236.959Z" fill="#6464F8"/>
<path d="M60.9732 181.025C60.1624 180.879 59.3264 180.977 58.5716 181.308C57.9771 181.554 57.348 181.707 56.7068 181.76C57.4696 180.827 58.2608 179.895 59.1084 178.934H59.7018C60.2184 178.88 60.7392 178.88 61.2558 178.934C62.3892 179.063 63.4648 179.503 64.3638 180.205L63.5444 182.212L63.2054 181.958C62.5721 181.429 61.7942 181.104 60.9732 181.025Z" fill="#6464F8"/>
<path d="M30.8822 249.282C30.8822 249.282 30.7127 194.507 -0.000204086 174.524C10.815 199.554 18.3462 225.879 22.4058 252.843L30.8822 249.282Z" fill="#554FF0"/>
<path d="M9.32396 192.585C9.84793 192.58 10.3695 192.514 10.878 192.387C12.0316 192.163 13.0933 191.602 13.9295 190.776C14.285 190.449 14.6844 190.173 15.1161 189.956C14.7488 189.363 14.3533 188.769 13.9577 188.204C13.4448 188.469 12.9697 188.802 12.545 189.193C11.964 189.774 11.2285 190.176 10.4259 190.352C9.63328 190.589 8.78859 190.589 7.99599 190.352C7.49562 190.218 6.98548 190.123 6.47027 190.069L7.31791 192.359H7.45919C8.06723 192.521 8.69486 192.597 9.32396 192.585Z" fill="#6464F8"/>
<path d="M12.1495 199.142C12.7388 199.138 13.326 199.072 13.9013 198.944C15.2002 198.685 16.3969 198.057 17.3484 197.135C17.7576 196.745 18.2246 196.421 18.7328 196.174L17.6309 194.083C16.9669 194.415 16.3495 194.833 15.7944 195.326C15.1394 195.987 14.3039 196.439 13.3927 196.626C12.4722 196.91 11.4877 196.91 10.5672 196.626C9.93056 196.452 9.27684 196.348 8.61763 196.315L9.46529 198.803H9.94561C10.6589 199.026 11.402 199.141 12.1495 199.142Z" fill="#6464F8"/>
<path d="M16.9238 204.116C17.8773 203.916 18.8702 204.035 19.7492 204.455C20.7114 204.828 21.7421 204.992 22.7725 204.936L21.8118 202.562C21.3767 202.482 20.9507 202.359 20.5404 202.194C19.8671 201.939 19.1649 201.768 18.4495 201.685C17.8675 201.619 17.2797 201.619 16.6977 201.685C15.3813 201.844 14.1371 202.374 13.1094 203.212C12.6206 203.623 12.0535 203.931 11.4423 204.116C11.6684 204.879 11.9227 205.642 12.1487 206.405C13.009 206.126 13.8126 205.695 14.5221 205.134C15.212 204.577 16.0439 204.224 16.9238 204.116Z" fill="#6464F8"/>
<path d="M19.9758 212.793C21.1687 212.57 22.4014 212.718 23.5076 213.217C24.193 213.483 24.9027 213.682 25.6267 213.811C25.2876 212.624 24.9203 211.465 24.553 210.306C23.6517 209.936 22.6986 209.707 21.7275 209.628C20.9668 209.547 20.1996 209.547 19.4389 209.628C17.7281 209.848 16.1132 210.543 14.7769 211.634C14.427 211.896 14.0588 212.132 13.675 212.341C13.9858 213.387 14.2401 214.376 14.5226 215.393C15.2623 215.044 15.9631 214.618 16.6134 214.121C17.5707 213.343 18.745 212.879 19.9758 212.793Z" fill="#6464F8"/>
<path d="M20.5411 224.975C21.3086 224.984 22.0752 224.917 22.8298 224.777C24.5336 224.509 26.1235 223.753 27.4071 222.601L27.7744 222.318C27.5483 221.244 27.294 220.17 27.0397 219.096C26.495 219.414 25.9755 219.773 25.4857 220.17C24.5696 220.964 23.4589 221.501 22.2673 221.724C21.0757 221.948 19.8461 221.85 18.7046 221.442C17.8427 221.162 16.9515 220.982 16.0486 220.905C16.3029 222.007 16.5855 223.081 16.8398 224.127L17.7722 224.409C18.6679 224.713 19.5981 224.903 20.5411 224.975Z" fill="#6464F8"/>
<path d="M24.5249 233.821C25.7266 233.647 26.953 233.823 28.0567 234.33C28.6566 234.59 29.2815 234.789 29.9215 234.923C29.9215 233.849 29.639 232.719 29.4412 231.56H29.1587C28.262 231.166 27.3082 230.918 26.3332 230.825C25.5734 230.727 24.8043 230.727 24.0446 230.825C22.3274 230.99 20.6918 231.637 19.326 232.691L18.761 233.086C19.0152 234.16 19.2413 235.234 19.439 236.252C20.023 235.961 20.5808 235.621 21.1061 235.234C22.0749 234.426 23.2679 233.932 24.5249 233.821Z" fill="#6464F8"/>
<path d="M28.0568 240.378C25.5588 240.124 23.0546 240.798 21.0213 242.272H20.8801C21.1061 243.431 21.3039 244.533 21.4734 245.522C21.9373 245.285 22.3814 245.011 22.8014 244.703C23.768 243.976 24.9094 243.517 26.11 243.373C27.3107 243.229 28.5281 243.405 29.639 243.883C30.0346 244.053 30.4867 244.194 30.9388 244.335C30.9388 243.346 30.9387 242.215 30.6845 240.972C29.84 240.654 28.9558 240.454 28.0568 240.378Z" fill="#6464F8"/>
<path d="M7.37445 184.36C8.18828 184.234 9.0211 184.342 9.77611 184.671C10.3717 184.914 11.0002 185.066 11.6409 185.123C10.8781 184.162 10.0869 183.258 9.26755 182.297C9.07086 182.267 8.87087 182.267 8.67418 182.297C8.14896 182.229 7.61716 182.229 7.09193 182.297C5.96338 182.412 4.89294 182.854 4.01218 183.569L4.80331 185.547L5.17059 185.321C5.79261 184.787 6.56029 184.453 7.37445 184.36Z" fill="#6464F8"/>
<defs>
<linearGradient id="paint0_linear" x1="-2459.57" y1="5699.94" x2="-3211.93" y2="5699.94" gradientUnits="userSpaceOnUse">
<stop stop-color="#2D2D9F"/>
<stop offset="1" stop-color="#403CB8"/>
</linearGradient>
<linearGradient id="paint1_linear" x1="53.401" y1="245.494" x2="14.2965" y2="245.494" gradientUnits="userSpaceOnUse">
<stop stop-color="#2D2D9F"/>
<stop offset="1" stop-color="#403CB8"/>
</linearGradient>
</defs>
</svg>
