<svg width="22" height="27" viewBox="0 0 22 27" fill="none" xmlns="http://www.w3.org/2000/svg">
<path fill-rule="evenodd" clip-rule="evenodd" d="M17.2155 0H4.7905C2.15178 0 -0.000183105 2.05494 -0.000183105 4.5841V20.1056C-0.000183105 20.2698 0.070268 20.4278 0.191956 20.5433L6.75033 26.8176C6.87202 26.9331 7.03854 27 7.20506 27H17.2155C19.8543 27 21.9998 24.9451 21.9998 22.4159V4.57802C21.9998 2.05494 19.8543 0 17.2155 0ZM6.72471 25.0423L1.66503 20.1968H4.06037C5.4822 20.1968 6.72471 21.206 6.72471 22.3612V25.0423ZM20.7061 22.4159C20.7061 24.258 19.1369 25.7597 17.2155 25.7597H8.01845V22.3612C8.01845 20.519 6.20593 18.9565 4.06037 18.9565H1.29996V4.57802C1.29996 2.73587 2.8691 1.23418 4.79691 1.23418H17.2155C19.1433 1.23418 20.7061 2.73587 20.7061 4.57802V22.4159ZM15.9858 7.30173H5.63592C5.27726 7.30173 4.98905 7.5814 4.98905 7.92186C4.98905 8.26233 5.27726 8.542 5.63592 8.542H15.9858C16.3445 8.542 16.6327 8.26233 16.6327 7.92186C16.6327 7.5814 16.3445 7.30173 15.9858 7.30173ZM15.9858 11.0225H5.63592C5.27726 11.0225 4.98905 11.3022 4.98905 11.6426C4.98905 11.9831 5.27726 12.2628 5.63592 12.2628H15.9858C16.3445 12.2628 16.6327 11.9831 16.6327 11.6426C16.6327 11.2961 16.3445 11.0225 15.9858 11.0225ZM15.9858 14.7372H5.63592C5.27726 14.7372 4.98905 15.0169 4.98905 15.3574C4.98905 15.6978 5.27726 15.9775 5.63592 15.9775H15.9858C16.3445 15.9775 16.6327 15.6978 16.6327 15.3574C16.6327 15.0108 16.3445 14.7372 15.9858 14.7372Z" fill="#1C1C34"/>
</svg>
