<svg width="18" height="17" viewBox="0 0 18 17" fill="none" xmlns="http://www.w3.org/2000/svg">
<path d="M17.3528 8.143L9.70814 0.493C9.40235 0.187 8.97764 0 8.51047 0H2.5646C1.63025 0 0.865784 0.765 0.865784 1.7V7.65C0.865784 8.1175 1.05265 8.5425 1.36694 8.857L9.01162 16.507C9.31741 16.813 9.74211 17 10.2093 17C10.6765 17 11.1012 16.813 11.407 16.4985L17.3528 10.5485C17.6671 10.2425 17.854 9.8175 17.854 9.35C17.854 8.8825 17.6586 8.449 17.3528 8.143ZM3.83872 4.25C3.13371 4.25 2.5646 3.6805 2.5646 2.975C2.5646 2.2695 3.13371 1.7 3.83872 1.7C4.54373 1.7 5.11283 2.2695 5.11283 2.975C5.11283 3.6805 4.54373 4.25 3.83872 4.25ZM13.8363 11.2795L10.2093 14.909L6.58231 11.2795C6.20007 10.8885 5.96224 10.3615 5.96224 9.775C5.96224 8.602 6.91358 7.65 8.08576 7.65C8.67186 7.65 9.20699 7.888 9.58922 8.279L10.2093 8.891L10.8294 8.2705C11.2116 7.888 11.7467 7.65 12.3328 7.65C13.505 7.65 14.4563 8.602 14.4563 9.775C14.4563 10.3615 14.2185 10.897 13.8363 11.2795Z" fill="#FCFCFC"/>
</svg>
